<svg width="537" height="702" viewBox="0 0 537 702" fill="none" xmlns="http://www.w3.org/2000/svg">
<path d="M145.041 246.622C136.028 241.477 132.657 231.365 124.69 225.063C116.014 218.198 103.311 216.879 91.5303 216.863C86.4383 216.863 79.3946 219.114 80.8317 223.342C81.8253 226.268 86.6867 227.49 86.9528 230.529C87.2544 233.937 81.8076 235.159 77.8511 234.87C63.9412 233.905 50.4571 229.821 36.5295 229.468C22.5842 229.114 6.93559 233.793 1.41777 244.854C0.495181 246.703 -0.108041 248.712 0.0161543 250.722C0.512935 257.941 9.6324 262.024 17.5809 264.323C25.5294 266.622 34.8085 269.661 36.8489 276.687C37.8779 280.224 36.6892 283.986 37.3102 287.587C38.5521 294.902 46.9974 299.918 55.425 301.205C63.8525 302.491 72.4575 300.996 80.9914 300.288C89.5077 299.597 98.7336 299.87 105.724 304.131C110.674 307.153 113.885 311.8 117.558 315.98C124.069 323.343 132.816 329.645 143.249 331.751C153.681 333.858 165.87 330.964 171.849 323.263C175.167 318.986 176.533 313.488 181.111 310.208C191.082 303.021 205.541 310.69 216.08 305.224C226.3 299.918 227.879 285.851 222.095 277.684C215.495 268.375 201.053 258.873 189.627 254.725C175.575 249.629 157.886 254.002 145.041 246.654V246.622Z" fill="#E2EDE7"/>
<path d="M104.837 287.973C110.479 290.883 116.635 293.809 123.147 296.719C127.92 298.857 132.887 300.979 137.944 303.069C143.87 305.513 149.955 307.909 156.059 310.24C168.993 315.144 182.122 319.709 194.399 323.648C197.717 324.726 200.982 325.738 204.158 326.719C206.819 327.539 209.516 328.343 212.23 329.131C217.109 330.562 222.077 331.96 227.116 333.327C232.971 334.919 238.915 336.462 244.858 337.957C259.3 341.542 273.849 344.774 287.706 347.475C293.773 348.665 299.717 349.758 305.448 350.723C310.504 351.591 315.419 352.346 320.103 353.006C326.419 353.89 332.345 354.597 337.792 355.112C358.036 356.993 371.52 356.012 372.389 350.964C373.595 343.858 362.382 334.018 332.895 319.42C327.537 316.767 321.593 313.97 315.011 310.996C310.398 308.922 305.483 306.751 300.232 304.5C294.731 302.137 288.894 299.693 282.685 297.137C272.43 292.925 261.181 288.455 248.868 283.68C245.337 282.314 241.753 280.979 238.152 279.725C232.652 277.764 227.081 275.931 221.492 274.211C216.701 272.732 211.875 271.317 207.067 269.982C201.283 268.375 195.499 266.88 189.769 265.481C175.983 262.105 162.552 259.323 150.115 257.04C144.26 255.979 138.636 255.014 133.278 254.146C128.363 253.359 123.697 252.667 119.332 252.04C112.75 251.108 106.842 250.368 101.803 249.773C97.4917 249.275 93.8013 248.889 90.8561 248.616C76.343 247.265 72.7059 255.416 71.8542 258.825C69.8849 266.654 83.8657 277.201 104.855 288.005L104.837 287.973Z" fill="#1D4647"/>
<path d="M315.011 310.979C316.324 325.015 318.027 339.034 320.103 353.006C326.419 353.89 332.345 354.597 337.792 355.112C336.639 344.243 334.793 329.324 332.895 319.42C327.537 316.767 321.593 313.97 315.011 310.996V310.979Z" fill="#285F61"/>
<path d="M282.684 297.121C283.997 313.938 285.665 330.738 287.706 347.475C293.773 348.665 299.717 349.758 305.448 350.723C304.241 336.8 302.272 316.896 300.231 304.5C294.731 302.137 288.894 299.693 282.684 297.137V297.121Z" fill="#285F61"/>
<path d="M221.474 274.179C222.876 293.954 224.774 313.664 227.116 333.327C232.971 334.919 238.915 336.462 244.858 337.957C243.492 320.851 240.724 291.494 238.134 279.709C232.634 277.748 227.063 275.915 221.474 274.195V274.179Z" fill="#285F61"/>
<path d="M189.751 265.432C190.993 284.886 192.554 304.291 194.399 323.648C197.717 324.726 200.982 325.738 204.158 326.719C206.819 327.539 209.516 328.343 212.23 329.131C211.077 311.735 209.09 286.204 207.05 269.95C201.266 268.342 195.482 266.847 189.751 265.449V265.432Z" fill="#285F61"/>
<path d="M133.278 254.098C134.52 270.465 136.063 286.783 137.962 303.053C143.887 305.497 149.973 307.893 156.076 310.224C154.781 294.259 152.421 269.597 150.097 256.992C144.242 255.931 138.618 254.966 133.26 254.098H133.278Z" fill="#285F61"/>
<path d="M213.472 69.0645C213.046 67.9874 212.621 67.1353 212.408 66.9102C209.817 64.2574 205.985 62.505 202.1 62.1192C199.35 61.8458 196.458 62.1995 193.867 61.2992C191.667 60.5275 189.982 58.9519 188.03 57.7461C184.34 55.4632 179.62 54.6111 175.238 55.3988C171.512 56.0741 167.768 57.9069 164.096 57.0066C160.281 56.058 157.886 52.4085 154.125 51.2831C149.831 49.9969 145.307 52.3442 140.783 52.5532C137.695 52.6979 134.662 51.8297 131.645 51.1705C128.629 50.4953 125.418 50.029 122.473 50.9294C119.545 51.8297 117.061 54.5146 117.611 57.2799C118.374 61.0098 123.626 62.4889 125.489 65.8812C127.6 69.7237 126.642 74.4344 131.894 76.1707C136.116 77.5533 141.031 76.1707 144.952 78.5341C148.181 80.4794 149.37 84.4183 152.563 86.428C156.449 88.8718 161.736 87.6177 166.402 88.3251C169.578 88.8074 172.506 90.2383 175.628 90.994C181.501 92.3927 186.948 89.0325 192.82 89.3058C194.328 89.3702 195.854 89.7882 197.327 89.4666C198.959 89.1129 200.237 87.875 200.929 86.4762C202.188 84.0003 201.159 81.7495 204.388 80.6884C207.28 79.7399 209.64 77.7945 209.356 75.1096C209.64 75.0774 209.906 74.8684 209.835 74.5469C209.569 73.3089 209.072 72.1192 208.434 71.0099C208.487 71.026 208.558 71.0581 208.575 71.0742C210.35 71.9906 211.805 73.5983 213.029 75.1096C213.242 75.3829 213.437 75.608 213.721 75.7366C213.827 75.7848 213.934 75.8331 214.058 75.8492C215.708 76.1546 214.519 71.8298 213.419 69.0645H213.472Z" fill="#100024"/>
<path d="M212.887 85.8975C213.721 82.6981 214.2 79.1451 213.792 75.801C213.525 75.6563 213.348 75.4473 213.153 75.174C212.053 73.6949 210.722 72.1032 209.054 71.1547C208.753 70.9778 205.595 69.5469 205.701 69.2415C204.992 70.817 203.696 72.1675 202.1 73.0196C200.201 74.0325 197.788 74.6917 197.416 76.9907C197.327 77.5534 197.362 78.9361 196.599 79.1933C196.032 79.3862 194.79 78.4537 194.062 78.3573C189.556 77.7142 192.537 83.5663 194.009 84.8525C194.133 84.965 194.257 85.0615 194.328 85.2062C194.382 85.3187 194.399 85.4474 194.417 85.5599C194.772 87.859 196.032 89.8043 198.09 91.1548C200.68 92.8429 204.158 93.9362 207.351 93.2931C211.13 92.5214 212.071 88.904 212.869 85.8654L212.887 85.8975Z" fill="#FF9A66"/>
<path d="M148.11 226.011C148.891 231.3 151.002 236.333 153.238 241.252C157.442 250.497 170.501 278.037 172.381 282.732C173.872 286.446 170.749 290.208 167.094 292.233C166.296 292.667 165.444 293.085 164.876 293.761C164.309 294.436 164.131 295.449 164.717 296.108C168.744 295.674 172.612 294.5 176.32 293.053C179.106 291.976 183.878 290.947 184.393 287.925C184.553 286.831 180.791 281.317 180.401 280.272C176.888 270.915 178.715 265.497 176.48 255.834C174.83 248.712 172.736 241.59 169.206 235.014C165.906 228.873 161.062 224.371 166.065 217.506C168.443 214.242 178.29 209.291 185.103 201.847C187.374 199.339 191.188 194.499 194.293 190.175C197.327 185.995 199.704 182.297 199.474 181.702C200.254 183.615 201.425 186.364 202.827 189.564C207.138 199.258 213.774 213.133 219.451 220.85C227.79 232.233 237.424 243.519 240.813 257.137C242.676 264.596 242.445 272.474 245.124 279.757C247.307 285.706 252.132 291.14 256.107 296.188C258.325 299.002 260.737 301.719 262.884 304.581C265.137 307.619 268.278 309.854 270.709 312.812C271.471 313.729 272.199 314.742 272.376 315.883C272.731 318.311 271.365 320.385 273.778 322.426C274.434 322.973 275.197 323.359 275.978 323.713C281.017 326.092 286.872 329.629 292.425 330.69C297.162 331.574 293.827 327.845 291.768 326.462C285.541 322.217 281.212 315.819 277.681 309.597C273.423 302.137 271.01 293.954 268.402 285.947C262.423 267.587 255.273 249.596 248.105 231.606C241.54 215.046 234.94 198.455 227.187 182.345C223 173.599 218.476 164.982 213.419 156.589C213.313 156.605 213.188 156.605 213.082 156.621C204.388 157.683 195.606 156.911 187.249 154.58C187.161 154.773 187.054 154.933 186.965 155.126C183.009 162.859 178.023 170.11 172.843 177.232C169.773 181.461 166.633 185.641 163.581 189.869C155.952 200.416 146.212 212.715 148.163 225.963L148.11 226.011Z" fill="#FF9A66"/>
<path d="M161.576 66.1063C161.452 75.6401 164.522 84.3058 168.389 93.084C170.643 98.2287 173.712 103.116 175.522 108.406C177.172 113.197 177.544 115.142 178.502 119.29C178.964 121.139 179.532 123.438 180.383 126.637C180.383 126.139 188.509 119.483 188.811 118.743C189.769 116.364 190.532 113.936 191.082 111.444C191.756 108.55 193.796 104.242 193.672 101.476C193.601 100.094 193.016 99.1291 191.454 98.8397C191.437 98.8397 191.383 98.8236 191.348 98.8236C190.088 98.6307 188.917 98.2287 187.853 97.6339C181.093 93.92 177.864 83.0518 174.83 75.3347C172.825 70.2703 171.512 64.9809 171.281 59.595C171.086 55.2541 171.831 51.0741 172.027 46.7653C172.239 42.2155 172.648 37.6977 173.269 33.18C173.659 30.0771 174.173 26.9903 174.777 23.9195C175.22 21.5562 176.214 18.4211 175.238 16.0738C174.759 14.9323 173.464 13.9677 172.115 14.2249C169.383 14.7394 169.685 18.1799 169.933 19.9645C170.43 23.4533 169.028 26.9099 167.91 30.1736C163.847 41.7814 161.718 53.9197 161.559 66.0902L161.576 66.1063Z" fill="#FF9A66"/>
<path d="M200.822 113.068C205.737 117.666 211.538 121.428 217.393 124.981C218.724 125.801 220.09 126.605 221.456 127.409C222.113 127.827 222.751 128.197 223.426 128.583C226.548 130.415 229.671 132.232 232.829 134.001C241.7 138.936 250.589 143.181 260.968 144.724C274.222 146.67 287.794 146.863 301.101 145.255C304.845 144.805 308.854 144.129 312.562 145.191C314.443 145.721 318.151 146.589 319.18 144.242C319.659 143.1 318.843 141.766 317.672 141.139C315.312 139.869 311.728 140.207 309.085 140.207C305.661 140.207 302.201 140.11 298.759 139.949C293.756 139.724 288.752 139.306 283.785 138.711C279.065 138.149 274.381 138.084 269.697 137.152C263.878 136.01 258.36 133.936 253.197 131.284C244.113 126.605 235.668 120.255 228.269 113.566C225.466 111.026 219.842 105.528 213.703 103.486C212.213 102.972 210.687 102.698 209.196 102.698C206.411 102.698 211.201 110.882 208.469 111.316C207.617 111.46 201.55 113.197 200.84 113.052L200.822 113.068Z" fill="#FF9A66"/>
<path d="M179.106 118.792C179.39 121.428 179.851 124.033 180.383 126.653C180.756 128.47 181.164 130.271 181.554 132.071C183.275 139.773 185.032 147.506 186.93 155.175C187.001 155.4 187.037 155.609 187.09 155.834C194.595 157.763 202.419 158.712 210.208 158.631C210.935 158.631 211.734 158.599 212.284 158.165C212.656 157.827 212.851 157.345 212.993 156.879C213.011 156.798 213.029 156.75 213.064 156.67C216.364 147.023 219.647 137.329 221.474 127.409C221.918 125.11 222.255 122.827 222.503 120.512C222.574 119.981 222.627 119.435 222.663 118.904C222.929 115.946 223.018 112.859 221.634 110.19C220.197 107.329 217.287 105.319 214.04 104.129C213.366 103.872 212.709 103.663 212.017 103.47C211.095 103.229 210.119 103.004 209.196 102.714C208.682 102.57 208.167 102.377 207.706 102.152C206.801 101.75 206.038 101.219 205.506 100.447C204.938 99.6275 204.725 98.6629 204.548 97.7143C204.069 95.3671 203.59 93.0198 203.129 90.6886C202.809 89.2255 202.508 87.7464 201.692 86.4602C200.858 85.1901 198.498 81.3637 196.866 81.3798C191.277 81.412 196.245 94.74 193.264 97.6339C192.749 98.1484 192.111 98.5182 191.454 98.8076C191.437 98.8237 191.383 98.8397 191.366 98.8397C190.319 99.2899 189.13 99.515 187.924 99.7562C186.167 100.078 184.375 100.383 182.903 101.251C179.993 102.972 179.123 106.46 178.875 109.612C178.644 112.682 178.769 115.737 179.123 118.792H179.106Z" fill="#FF9A66"/>
<path d="M172.789 177.281C179.319 180.593 185.582 184.339 191.525 188.471C192.395 189.081 193.317 189.725 194.293 190.207C197.327 186.027 199.704 182.329 199.474 181.734C200.254 183.647 201.425 186.397 202.827 189.596C203.093 189.467 203.377 189.355 203.643 189.21C210.988 185.802 219.114 184.033 227.187 182.377C223 173.631 218.476 165.014 213.419 156.621C213.313 156.637 213.188 156.637 213.082 156.654C213.117 156.525 213.171 156.412 213.206 156.268C214.501 152.522 215.779 148.744 216.968 144.981C218.777 139.161 220.392 133.309 221.474 127.393C222.645 124.515 223.355 123.1 222.503 120.496C222.414 120.206 215.708 108.116 214.767 105.785C214.537 105.238 214.324 104.66 214.058 104.113C213.951 103.904 213.845 103.679 213.721 103.486C212.23 102.971 210.705 102.698 209.214 102.698C208.7 102.553 208.185 102.361 207.724 102.135C207.706 102.152 207.653 102.168 207.635 102.2C205.825 103.293 203.537 103.55 201.372 103.502C198.977 103.486 196.493 103.116 194.453 101.975C194.204 101.83 193.956 101.669 193.708 101.508C192.749 100.801 191.951 99.9007 191.49 98.8718C191.472 98.8557 191.472 98.8396 191.472 98.8075C191.454 98.8235 191.401 98.8396 191.383 98.8396C190.124 98.6467 188.953 98.2448 187.888 97.6499C187.87 97.6499 187.853 97.666 187.817 97.666C187.906 98.3734 187.924 99.0486 187.924 99.756C187.959 106.814 184.677 113.856 179.123 118.792C178.911 118.984 178.733 119.145 178.52 119.306C178.982 121.155 179.549 123.454 180.401 126.653C180.773 128.47 181.182 130.271 181.572 132.071C182.37 135.592 183.133 139.129 183.949 142.666C184.907 146.846 185.919 151.026 186.93 155.191C186.912 155.255 186.895 155.287 186.841 155.335C182.92 163.004 177.935 170.207 172.789 177.281Z" fill="#C4837C"/>
<path d="M186.93 155.174C186.93 155.174 186.895 155.271 186.841 155.319C195.482 156.927 204.371 157.216 213.171 156.284C214.466 152.538 215.743 148.76 216.932 144.998C210.988 145.142 205.045 145.19 199.101 145.126C194.027 144.515 188.97 143.711 183.932 142.65C184.89 146.83 185.901 151.01 186.912 155.174H186.93Z" fill="#FF9A66"/>
<path d="M217.34 174.869C217.571 174.306 218.653 174.323 218.6 175.03C218.493 176.043 218.334 177.458 217.482 178.197C217.074 178.551 216.524 178.261 216.471 177.811C216.364 176.895 216.985 175.737 217.34 174.885V174.869Z" fill="white"/>
<path d="M211.059 166.461C211.113 166.236 211.45 166.316 211.467 166.509C211.645 167.908 212 169.515 211.432 170.882C211.272 171.252 210.616 171.332 210.509 170.882C210.137 169.451 210.687 167.843 211.059 166.461Z" fill="white"/>
<path d="M208.274 178.133C208.327 177.844 208.895 177.827 208.93 178.133C209.179 179.644 209.374 181.509 208.629 182.94C208.398 183.406 207.742 183.101 207.688 182.715C207.493 181.268 208.025 179.58 208.274 178.149V178.133Z" fill="white"/>
<path d="M201.514 164.467C201.514 164.467 201.656 164.403 201.727 164.435C202.33 164.789 202.454 165.544 202.596 166.155C202.792 166.959 202.88 167.731 202.738 168.535C202.667 168.905 202.029 168.969 201.851 168.631C201.443 167.908 201.301 167.12 201.23 166.316C201.177 165.689 201.053 164.966 201.514 164.451V164.467Z" fill="white"/>
<path d="M193.849 177.249C194.559 176.445 195.233 175.384 196.138 174.757C196.529 174.483 197.132 174.724 196.99 175.207C196.706 176.22 195.854 177.136 195.198 177.972C194.595 178.728 194.027 179.66 192.945 179.837C192.696 179.869 192.448 179.741 192.448 179.499C192.448 178.551 193.211 177.956 193.832 177.249H193.849Z" fill="white"/>
<path d="M189.29 166.268C189.733 165.56 190.514 164.982 191.135 164.403C191.703 163.872 192.182 163.229 192.962 162.94C193.228 162.843 193.459 163.084 193.477 163.293C193.548 164.74 191.436 166.686 189.999 167.088C189.467 167.232 189.041 166.686 189.307 166.268H189.29Z" fill="white"/>
<path d="M183.541 171.268C183.648 170.786 184.375 170.866 184.535 171.268C184.854 172.056 184.943 172.908 185.049 173.744C185.156 174.564 185.333 175.448 185.049 176.252C184.89 176.718 184.091 176.895 183.825 176.396C183.417 175.625 183.417 174.757 183.399 173.921C183.364 173.036 183.346 172.136 183.541 171.268Z" fill="white"/>
<path d="M212.638 137.297C213.295 136.075 214.821 135.03 215.938 134.145C216.205 133.936 216.684 134.21 216.471 134.515C215.637 135.657 214.661 137.2 213.384 137.972C212.887 138.277 212.408 137.698 212.638 137.297Z" fill="white"/>
<path d="M216.471 119.402C216.755 119.242 217.092 119.563 216.914 119.804C216.471 120.464 215.956 121.091 215.477 121.734C215.016 122.328 214.643 122.988 214.005 123.454C213.579 123.759 212.851 123.486 213.029 122.939C213.472 121.492 215.122 120.206 216.471 119.418V119.402Z" fill="white"/>
<path d="M203.075 129.933C203.129 128.92 203.271 127.875 203.253 126.862C203.253 126.332 204.193 126.187 204.3 126.734C204.477 127.747 204.708 128.711 204.796 129.74C204.867 130.657 205.063 131.718 204.442 132.506C204.175 132.859 203.59 132.907 203.324 132.506C202.827 131.718 203.022 130.833 203.075 129.949V129.933Z" fill="white"/>
<path d="M208.593 114.001C208.753 113.052 208.895 112.055 208.966 111.107C208.984 110.785 209.551 110.673 209.622 111.026C209.977 112.747 210.385 115.11 209.285 116.669C208.984 117.104 208.363 116.878 208.292 116.428C208.185 115.624 208.451 114.804 208.593 114.001Z" fill="white"/>
<path d="M197.646 117.007C198.338 116.155 199.101 115.48 199.935 114.74C200.254 114.451 200.769 114.82 200.556 115.174C200.006 116.075 199.491 116.991 198.906 117.875C198.374 118.679 197.912 119.676 197.114 120.287C196.582 120.689 195.837 120.303 195.961 119.676C196.156 118.679 197.025 117.811 197.664 117.007H197.646Z" fill="white"/>
<path d="M190.532 110.222C191.206 108.888 192.182 107.586 193.157 106.396C193.477 106.01 194.116 106.235 194.027 106.734C193.725 108.374 192.732 109.917 191.259 110.882C190.78 111.187 190.336 110.608 190.532 110.222Z" fill="white"/>
<path d="M184.588 121.155C184.712 120.624 185.653 120.48 185.919 120.994C186.309 121.766 186.433 122.65 186.557 123.486C186.682 124.37 186.806 125.303 186.522 126.171C186.362 126.669 185.582 126.782 185.28 126.316C184.819 125.56 184.694 124.692 184.606 123.84C184.517 122.956 184.393 122.023 184.606 121.139L184.588 121.155Z" fill="white"/>
<path d="M193.424 133.583C193.92 134.451 194.346 135.335 194.719 136.252C195.056 137.072 195.446 137.875 195.038 138.711C194.878 139.033 194.382 139.097 194.08 138.937C193.282 138.535 193.087 137.666 192.82 136.911C192.519 135.978 192.288 135.03 192.111 134.081C191.986 133.422 193.016 132.875 193.406 133.583H193.424Z" fill="white"/>
<path d="M128.505 12.0223C123.981 6.78108 117.736 2.7296 110.71 0.784248C107.8 -0.0196167 104.553 -0.437626 101.768 0.687784C98.9821 1.81319 97.0304 4.94827 98.3434 7.44024C99.4434 9.54637 102.229 10.3824 104.713 11.0094C110.994 12.585 117.292 14.2892 123.005 17.0866C125.737 18.421 128.328 20.0288 130.616 21.942C131.752 22.8905 132.834 23.9034 133.792 24.9966C134.484 25.7844 135.212 27.2796 136.347 27.5208C136.116 22.2796 131.965 16.0416 128.487 12.0223H128.505Z" fill="#E2EDE7"/>
<path d="M120.255 21.9741C116.76 20.1091 112.945 18.7265 108.989 17.8905C106.451 17.3599 103.755 17.0384 101.271 17.7779C98.7868 18.5014 96.6223 20.5111 96.5868 22.8744C96.5868 23.4532 96.6933 24.032 97.0304 24.5304C97.5449 25.3021 98.4852 25.7683 99.461 25.9291C100.437 26.0899 101.43 25.9613 102.406 25.8005C104.447 25.4468 106.416 24.868 108.421 24.4178C111.064 23.823 113.761 23.4693 116.476 23.3567C117.842 23.2924 119.19 23.3889 120.556 23.3567C122.277 23.3246 121.266 22.5368 120.255 21.9902V21.9741Z" fill="#E2EDE7"/>
<path d="M296.038 553.605C295.488 554.627 294.859 555.649 294.073 556.671C293.758 557.143 294.23 557.143 289.671 559.029C285.662 560.759 278.902 561.387 278.509 561.466C270.098 562.881 265.46 565.475 256.656 563.117C254.455 562.567 251.94 561.623 249.11 560.287C243.136 557.536 238.42 553.684 234.411 549.125C231.266 545.666 228.594 541.815 226.157 537.963C227.493 542.365 228.751 546.767 230.087 551.247C230.323 552.112 230.559 552.977 230.795 553.841C231.424 556.199 232.131 558.479 232.76 560.759C231.659 560.837 230.402 561.152 229.38 562.016C228.122 563.117 228.437 563.981 226.864 566.261C225.528 568.226 224.664 568.462 223.563 569.955C223.013 568.698 222.463 567.519 221.912 566.261C218.925 559.579 216.017 552.898 213.03 546.059C210.043 539.378 207.134 532.618 204.147 525.622C202.575 521.927 200.453 517.054 199.51 511.315C199.274 510.136 199.117 508.879 199.038 507.542C198.802 504.241 198.881 500.782 199.745 497.166C200.374 494.101 202.339 485.218 208.313 483.332C209.1 483.017 209.964 482.939 210.829 482.939C215.074 483.096 220.183 486.633 228.515 492.529C232.681 495.516 236.14 498.345 238.655 500.546C238.655 500.782 238.655 500.939 238.655 501.097C239.992 513.909 239.756 514.695 240.699 517.525C243.372 525.386 249.031 530.181 251.39 532.146C252.333 532.932 265.932 544.094 282.989 540.871C287.313 540.085 292.501 539.142 295.802 534.74C297.217 532.775 298.003 530.731 298.396 528.53C300.597 538.199 300.283 546.059 296.038 553.448V553.605Z" fill="#2A3F44"/>
<path d="M298.475 528.609C298.082 530.81 297.295 532.932 295.881 534.819C292.579 539.221 287.391 540.164 283.068 540.95C266.01 544.094 252.411 533.011 251.468 532.225C249.11 530.181 243.45 525.465 240.778 517.604C239.834 514.774 240.07 513.909 238.734 501.175C238.734 500.939 238.734 500.782 238.734 500.625C238.184 495.358 237.555 490.17 237.162 486.319C235.904 475.471 235.511 472.877 235.747 468.318C235.904 466.196 236.14 464.23 236.376 462.58C234.096 464.23 231.738 465.96 229.458 467.768C222.934 472.798 216.882 477.829 211.301 482.624L210.907 482.939C210.043 482.939 209.178 483.017 208.392 483.332C202.497 485.297 200.531 494.179 199.824 497.166C199.038 500.782 198.881 504.241 199.117 507.542C198.566 509.193 198.095 510.765 197.702 512.259C197.309 512.416 196.916 512.573 196.523 512.652C192.435 514.067 188.348 513.831 185.596 511.708C185.282 511.473 184.889 511.158 184.417 510.687C184.26 510.529 184.024 510.294 183.867 510.058C185.911 491.428 192.121 478.301 196.287 470.991C199.51 465.41 210.121 454.719 231.345 433.495C232.839 432.002 235.747 429.172 240.463 426.814C241.564 426.264 242.664 425.792 243.686 425.478C244.315 425.792 244.944 426.264 245.573 426.814C247.459 428.386 249.189 430.744 250.525 435.225C252.647 442.142 253.355 452.518 253.512 458.964L253.198 460.143C253.119 462.422 252.883 466.117 252.176 470.676C251.94 472.091 251.704 473.349 251.39 474.606C250.918 476.65 250.446 478.537 249.896 480.266C246.437 491.35 242.035 497.559 244.708 505.656C245.494 508.093 246.673 509.586 248.796 512.573C251.154 515.796 258.7 526.172 266.246 524.678C266.796 524.6 267.504 524.364 268.368 523.971C270.334 523.971 272.299 523.971 274.343 523.814C283.068 523.342 290.928 521.849 297.846 520.041C298.475 522.556 298.868 525.7 298.396 528.766L298.475 528.609Z" fill="#F95623"/>
<path d="M407.265 520.277C407.108 528.294 406.715 538.435 405.536 550.147C401.999 551.326 396.025 552.584 389.658 550.618C387.85 550.068 386.277 549.282 384.863 548.496C383.919 529.631 381.483 509.272 376.845 487.891C376.452 486.162 376.059 484.354 375.587 482.624C372.443 475.078 364.425 453.933 359.709 418.56C359.394 416.281 359.08 413.137 358.608 409.285C356.014 409.992 353.027 410.543 349.804 410.7C349.254 410.7 348.704 410.7 348.154 410.7C347.761 415.023 347.21 420.604 346.581 426.893C344.38 448.195 343.044 454.876 341.944 468.004C340.607 484.354 341.629 487.262 340.922 501.411C340.293 513.595 338.642 531.046 333.611 552.584C330.782 553.684 325.751 555.099 320.091 553.606C318.283 553.134 316.79 552.426 315.532 551.719C313.96 535.369 312.781 521.456 312.152 510.687C310.187 482.074 309.794 461.715 309.401 444.579C309.008 426.421 309.165 418.875 309.794 410.7C310.344 402.839 311.366 391.284 313.881 377.449C314.667 372.812 315.532 368.646 316.318 365.03C320.406 366.209 324.65 367.073 328.895 367.859C343.987 370.689 351.612 372.026 358.372 371.633C374.487 370.611 373.465 365.58 392.88 361.257C393.431 365.344 394.138 370.611 394.924 376.821C396.811 392.07 397.833 404.018 398.776 414.866C400.898 438.998 402.628 462.344 403.649 477.122C404.593 481.288 405.379 486.004 406.086 491.114C406.872 497.245 407.658 505.813 407.501 520.198L407.265 520.277Z" fill="#992525"/>
<path d="M365.918 207.739C365.29 208.918 364.346 210.647 363.324 212.691C358.765 221.495 357.822 224.639 355.307 226.211C355.307 226.211 354.992 226.447 354.756 226.526C352.005 227.862 349.175 227.076 346.424 226.368C343.83 225.74 338.721 224.403 336.834 220.237C334.948 216.071 337.385 211.512 339.035 208.446C340.45 205.695 342.179 203.651 343.752 202.236C343.752 202.236 343.83 202.315 343.909 202.394C344.695 203.258 345.795 204.28 347.132 205.223C348.468 206.088 351.219 207.896 355.071 207.896C358.058 207.896 360.337 206.874 361.988 205.852C362.774 206.324 364.346 207.189 366.076 207.739H365.918Z" fill="#F95623"/>
<path d="M374.958 199.171C375.194 202.472 373.308 206.56 369.534 207.817C369.534 207.817 369.377 207.817 369.299 207.896C368.277 208.211 367.019 208.053 365.919 207.739C364.268 207.267 362.696 206.324 361.831 205.852C360.259 206.874 357.901 207.896 354.914 207.896C351.062 207.896 348.232 206.088 346.974 205.223C345.56 204.28 344.538 203.258 343.752 202.394C343.83 202.236 343.909 202.079 343.987 201.922C345.009 199.485 345.874 197.363 346.66 195.869C348.94 191.074 350.59 187.616 353.813 183.921C355.307 182.192 356.8 180.777 358.058 179.755C358.687 180.305 359.316 180.698 359.866 181.091C362.617 182.899 365.447 183.685 367.648 184C367.333 184.471 366.94 185.022 366.547 185.651C364.897 188.402 362.067 193.04 363.56 195.005C363.796 195.319 364.661 196.184 367.255 195.948C368.748 194.376 370.871 193.747 372.443 194.454C374.722 195.398 374.958 198.542 374.958 199.328V199.171Z" fill="#FFA57D"/>
<path d="M389.579 209.547C388.085 211.198 384.234 215.364 380.068 215.835C379.36 215.835 378.653 215.835 377.945 215.678C376.295 215.285 375.037 214.263 374.015 213.477C371.735 211.591 370.32 209.547 369.534 207.817C373.308 206.56 375.194 202.472 374.958 199.171C374.958 198.385 374.644 195.241 372.443 194.297C370.871 193.668 368.748 194.219 367.255 195.791C364.661 196.027 363.875 195.241 363.56 194.847C362.067 192.882 364.897 188.245 366.547 185.493C366.94 184.865 367.255 184.314 367.648 183.843C365.447 183.528 362.617 182.742 359.866 180.934C359.316 180.541 358.687 180.148 358.058 179.598C354.599 176.847 350.512 171.973 351.769 166.785C352.477 163.798 355.071 160.261 358.765 160.025C362.303 159.711 366.154 162.383 367.648 166.785C371.264 166.235 378.967 165.842 386.356 170.715C388.085 171.895 395.003 176.532 397.204 185.493C400.269 197.992 391.387 207.582 389.658 209.468L389.579 209.547Z" fill="#F95623"/>
<path d="M380.068 215.835C379.832 216.857 379.596 217.879 379.36 218.98C379.046 220.473 378.81 221.967 378.495 223.381C378.417 223.932 378.338 224.561 378.26 225.111C374.015 227.155 367.962 229.198 360.652 229.12C357.665 229.12 356.093 229.12 353.97 228.727C354.521 227.941 354.992 227.076 355.228 226.29C357.822 224.718 358.687 221.495 363.246 212.691C364.268 210.647 365.211 208.918 365.84 207.739C367.019 208.053 368.198 208.211 369.22 207.896C369.299 207.896 369.377 207.896 369.456 207.817C370.242 209.547 371.657 211.669 373.936 213.477C375.037 214.263 376.216 215.364 377.867 215.678C378.574 215.835 379.282 215.835 379.989 215.835H380.068Z" fill="#FFA57D"/>
<path d="M419.213 285.402C418.742 286.817 417.798 288.86 415.676 291.14C415.204 290.118 414.654 289.096 414.104 288.153C412.925 286.266 409.938 281.235 406.165 279.506C405.536 269.13 403.492 255.453 397.361 240.596C395.474 236.194 393.509 232.107 391.465 228.412C392.33 229.041 393.195 229.749 394.059 230.613C399.562 235.958 401.763 242.011 402.785 244.684C412.846 271.174 422.593 275.812 419.213 285.48V285.402Z" fill="#876751"/>
<path d="M406.086 279.427C405.536 279.192 404.907 278.956 404.357 278.956C403.964 278.798 403.571 278.798 403.178 278.877L401.684 279.27L399.248 279.899C398.776 276.047 397.99 270.309 396.811 264.021C395.553 257.182 393.824 249.714 391.701 243.74C389.107 236.43 385.884 230.377 385.884 230.377C384.548 227.862 383.212 225.661 382.033 223.774C382.347 223.853 382.74 223.932 383.133 224.01C384.155 224.325 387.535 225.268 391.466 228.255C393.509 231.949 395.474 235.958 397.361 240.439C403.492 255.295 405.536 268.973 406.165 279.349L406.086 279.427Z" fill="#171D1E"/>
<path d="M419.213 303.638C418.113 307.333 416.226 311.656 413.004 315.901C412.846 316.137 412.611 316.372 412.453 316.608C412.217 316.923 411.746 317.551 411.038 318.338C407.58 322.268 399.09 330.6 387.457 331.15C386.278 331.15 385.098 331.15 383.919 331.072C383.762 331.072 383.605 331.072 383.526 331.072C382.033 330.915 380.696 330.679 379.36 330.286C374.958 329.107 371.5 326.984 369.063 325.098C369.377 318.18 368.591 309.691 363.796 301.83C362.381 299.394 357.979 292.083 352.87 292.555L359.316 290.825C360.495 291.69 361.831 292.869 363.167 294.441C364.504 295.856 366.469 298.45 369.141 304.346C371.657 309.848 371.264 310.477 372.757 313.621C373.858 315.822 376.295 321.01 380.696 324.312C382.111 325.412 383.841 326.277 385.727 326.827C393.195 328.949 400.034 324.233 401.999 322.897C409.938 317.473 412.139 308.748 413.161 304.581C413.868 301.909 414.576 299 414.183 295.306C414.104 294.52 413.947 293.734 413.79 292.948C412.532 287.603 409.23 283.358 406.243 280.607C405.615 279.978 404.986 279.428 404.357 279.035C404.986 279.035 405.536 279.27 406.086 279.506C409.859 281.236 412.925 286.266 414.025 288.153C414.654 289.175 415.205 290.118 415.598 291.14C417.641 295.385 418.663 299.629 419.056 303.717L419.213 303.638Z" fill="#5D7E82"/>
<path d="M410.96 318.495C410.96 319.831 410.96 321.168 410.803 322.583C410.252 332.644 407.108 341.134 403.807 347.658C403.728 347.894 403.649 348.051 403.492 348.208C402.156 348.994 400.584 349.859 398.776 350.488C392.88 353.553 385.727 356.54 377.788 358.977C379.989 356.383 382.426 353.003 384.312 348.758C385.884 345.3 387.064 341.291 387.378 336.81C387.535 334.845 387.535 332.959 387.378 331.229C399.012 330.679 407.501 322.425 410.96 318.495Z" fill="#2A3F44"/>
<path d="M418.192 321.01C416.777 329.264 415.126 338.933 406.872 345.693C406.715 345.85 406.558 346.007 406.322 346.164C406.322 346.164 406.322 346.164 406.322 346.086C409.309 339.876 412.217 331.465 412.846 321.403C413.004 319.517 413.004 317.709 412.925 316.058C416.148 311.813 418.034 307.49 419.135 303.796C419.842 310.87 418.82 317.237 418.113 321.089L418.192 321.01Z" fill="#2A3F44"/>
<path d="M399.248 279.899L382.74 284.458C384.47 283.436 385.963 282.1 387.378 280.842C392.88 275.812 395.553 269.444 396.889 264.099C398.068 270.309 398.854 276.126 399.326 279.978L399.248 279.899Z" fill="#876751"/>
<path d="M413.082 304.503C412.06 308.669 409.859 317.395 401.92 322.818C400.034 324.155 393.195 328.871 385.649 326.749C383.683 326.198 382.033 325.334 380.618 324.233C376.216 320.932 373.701 315.744 372.679 313.543C371.185 310.399 371.578 309.77 369.063 304.267C366.39 298.372 364.425 295.778 363.089 294.363C361.752 292.791 360.337 291.612 359.237 290.747L377.002 285.873L382.74 284.301L399.247 279.742L401.684 279.113L403.178 278.72C403.571 278.72 403.964 278.72 404.357 278.799C404.907 279.271 405.615 279.821 406.243 280.371C409.23 283.201 412.532 287.367 413.79 292.712C413.947 293.498 414.104 294.284 414.183 295.07C414.576 298.765 413.868 301.673 413.161 304.346L413.082 304.503Z" fill="#2A3F44"/>
<path d="M383.605 336.574C383.212 340.111 382.347 343.413 381.247 346.321C379.124 352.138 376.059 356.697 373.307 360.156C369.534 361.178 365.683 362.121 361.674 362.75C356.643 363.614 351.848 364.165 347.446 364.401C351.927 363.221 355.149 360.47 356.564 359.37C364.818 352.61 366.469 342.941 367.884 334.687C368.277 332.329 368.906 328.949 369.063 325.098C371.421 326.984 374.958 329.106 379.36 330.286C380.696 330.679 382.033 330.914 383.526 331.072C383.683 331.072 383.841 331.072 383.919 331.072C383.998 332.801 383.919 334.609 383.683 336.495L383.605 336.574Z" fill="#2A3F44"/>
<path d="M387.378 336.731C387.064 341.133 385.884 345.221 384.312 348.68C382.426 352.924 379.989 356.304 377.788 358.898C376.373 359.291 374.88 359.763 373.386 360.156C376.137 356.776 379.203 352.138 381.325 346.321C382.426 343.334 383.29 340.111 383.683 336.574C383.919 334.688 383.998 332.88 383.919 331.15C385.098 331.308 386.278 331.308 387.457 331.229C387.614 332.958 387.614 334.766 387.457 336.81L387.378 336.731Z" fill="#171D1E"/>
<path d="M413.004 315.979C413.082 317.709 413.004 319.517 412.925 321.325C412.296 331.386 409.466 339.719 406.401 346.007V346.086C405.772 346.557 404.986 347.186 403.964 347.815C403.807 347.894 403.649 348.051 403.571 348.129C403.728 347.972 403.807 347.815 403.885 347.579C407.265 341.055 410.331 332.565 410.881 322.504C410.96 321.089 411.038 319.753 411.038 318.416C411.746 317.63 412.217 317.001 412.453 316.687C412.689 316.451 412.846 316.215 413.004 315.979Z" fill="#171D1E"/>
<path d="M330.546 273.689C326.694 275.655 322.371 277.62 317.576 279.506Z" fill="#FFB357"/>
<path d="M330.546 273.689C326.694 275.655 322.371 277.62 317.576 279.506" stroke="#070707" stroke-width="0.12" stroke-miterlimit="10"/>
<path d="M276.543 288.31C277.015 289.018 277.644 289.804 278.273 290.668C275.915 292.398 273.478 293.105 271.513 292.398C270.727 292.083 270.019 291.612 269.39 290.983C268.761 290.275 268.29 289.411 267.975 288.467C266.796 285.638 266.639 282.258 266.639 280.764C266.403 275.969 267.975 276.048 273.085 261.27C273.556 259.855 273.949 258.519 274.5 257.418C275.129 255.925 275.915 254.903 277.172 254.588C278.823 254.195 280.552 255.296 281.731 256.318C280.395 259.305 278.98 262.292 277.723 265.279C274.5 272.432 273.478 273.611 273.085 275.812C272.613 278.327 272.849 282.1 276.072 287.21C276.229 287.524 276.465 287.76 276.622 288.074L276.543 288.31Z" fill="#876751"/>
<path d="M359.787 337.203C353.342 337.832 347.289 335.238 343.909 330.443C341.629 327.142 341.158 323.604 341.158 321.168C341.158 321.089 341.236 321.01 341.315 320.932L359.787 337.203Z" fill="#171D1E"/>
<path d="M360.573 337.832C358.687 347.107 353.027 353.946 346.11 355.439C345.088 355.675 339.664 356.776 336.363 353.789C330.231 348.129 336.52 332.172 338.799 326.434C339.586 324.39 340.372 322.582 341.158 321.167C341.158 323.525 341.629 327.141 343.909 330.443C347.289 335.316 353.342 337.832 359.787 337.203L360.573 337.91V337.832Z" fill="#5D7E82"/>
<path d="M364.739 323.054C364.189 323.368 363.167 323.368 356.329 317.787C346.739 309.927 345.638 307.49 345.717 305.289C345.717 303.638 346.424 302.459 346.896 301.516C347.603 300.101 348.861 298.607 350.197 297.507C351.691 296.328 353.342 295.542 354.914 295.699C359.394 296.17 361.595 304.267 363.796 312.442C364.975 316.765 366.312 322.032 364.582 323.054H364.739Z" fill="#5D7E82"/>
<path d="M363.718 301.83C362.303 299.393 357.901 292.083 352.791 292.555C352.005 292.555 351.298 292.869 350.512 293.341C348.94 294.441 347.21 296.564 344.931 300.337C343.673 302.459 342.651 304.424 341.708 306.311C339.271 311.342 337.542 316.137 335.341 322.268C333.14 328.478 330.546 335.316 328.895 343.963C328.659 345.378 328.345 346.793 328.188 348.286C328.109 348.679 328.03 349.072 328.03 349.544C327.716 351.824 327.637 354.339 328.817 356.854C331.961 363.536 340.686 364.715 341.158 364.715C343.359 364.951 345.481 364.715 347.289 364.322H347.446C351.927 363.143 355.15 360.392 356.564 359.291C364.818 352.531 366.469 342.863 367.884 334.609C368.277 332.251 368.906 328.871 369.063 325.019C369.377 318.102 368.591 309.612 363.796 301.752L363.718 301.83ZM346.031 355.44C345.009 355.675 339.586 356.776 336.284 353.789C330.153 348.129 336.441 332.172 338.721 326.434C339.507 324.39 340.293 322.582 341.079 321.167C341.079 321.089 341.158 321.01 341.236 320.932L359.709 337.203L360.495 337.91C358.608 347.186 352.949 354.025 346.031 355.518V355.44ZM364.739 323.054C364.189 323.368 363.167 323.368 356.329 317.787C346.739 309.927 345.638 307.49 345.717 305.289C345.717 303.638 346.424 302.459 346.896 301.516C347.603 300.101 348.861 298.607 350.197 297.507C351.691 296.328 353.342 295.542 354.914 295.699C359.394 296.171 361.595 304.267 363.796 312.442C364.975 316.765 366.312 322.032 364.582 323.054H364.739Z" fill="#39565B"/>
<path d="M396.811 264.021C395.474 269.366 392.802 275.733 387.299 280.764C385.884 282.022 384.47 283.358 382.662 284.38L376.923 285.952C368.591 285.795 360.495 276.441 357.193 267.951C354.521 261.113 356.171 257.811 352.32 249.95C351.219 247.671 349.962 245.784 348.861 244.055C348.861 244.055 348.861 244.055 348.861 243.976C348.311 242.09 347.761 240.989 347.761 240.989C346.424 238.16 344.852 235.959 343.594 234.308C343.987 234.229 344.38 234.072 344.852 233.993C345.874 233.679 346.739 233.443 347.446 233.207C351.612 235.723 357.115 238.867 363.718 242.011C375.115 247.592 377.474 247.514 378.889 246.649C384.155 243.662 381.325 229.67 380.068 224.168C380.461 223.932 380.775 223.775 381.089 223.617C381.089 223.617 381.718 223.775 382.111 223.853C383.29 225.74 384.548 227.862 385.963 230.456C385.963 230.456 389.186 236.509 391.78 243.819C393.981 249.793 395.632 257.261 396.889 264.1L396.811 264.021Z" fill="#AD8971"/>
<path d="M378.81 246.649C377.395 247.435 375.037 247.592 363.639 242.011C357.036 238.788 351.534 235.723 347.367 233.207C350.04 232.343 351.691 231.321 353.106 229.749C353.42 229.434 353.656 229.12 353.892 228.727C356.014 229.199 357.586 229.12 360.573 229.12C367.884 229.199 373.936 227.155 378.181 225.111C378.81 224.797 379.439 224.482 379.91 224.168C381.247 229.67 383.998 243.662 378.731 246.649H378.81Z" fill="white"/>
<path d="M377.002 286.031L359.237 290.904L352.791 292.633C352.005 292.633 351.298 292.948 350.512 293.42C351.455 272.353 351.298 256.946 350.355 250.658C349.962 248.142 349.333 245.863 348.861 244.134C350.04 245.784 351.219 247.671 352.32 250.029C356.171 257.89 354.521 261.191 357.193 268.03C360.495 276.519 368.591 285.873 376.923 286.031H377.002Z" fill="#876751"/>
<path d="M350.512 293.419C348.94 294.52 347.21 296.642 344.931 300.415C343.673 302.538 342.651 304.503 341.708 306.389C343.28 279.821 343.28 259.933 342.18 252.623C341.472 247.278 339.428 243.033 339.428 243.033C338.013 240.046 336.363 237.688 334.948 236.037C337.227 235.644 339.821 235.251 343.437 234.308C344.774 235.958 346.346 238.159 347.603 240.989C347.603 240.989 348.154 242.09 348.704 243.976V244.055C349.175 245.706 349.883 247.985 350.197 250.579C351.062 256.868 351.298 272.353 350.355 293.341L350.512 293.419Z" fill="#171D1E"/>
<path d="M341.708 306.389C339.271 311.42 337.542 316.215 335.341 322.346C333.14 328.556 330.546 335.395 328.895 344.042C323.55 335.867 317.89 325.569 313.567 313.15C312.152 309.141 311.052 305.289 310.108 301.594C311.523 297.586 313.095 293.105 314.825 288.153C315.532 286.109 316.475 283.201 317.576 279.585C307.986 283.279 296.431 286.423 283.304 287.838C282.596 287.917 281.81 287.996 281.103 288.074C280.238 289.175 279.295 290.039 278.273 290.747C277.644 289.961 277.015 289.175 276.543 288.389C276.308 288.074 276.15 287.76 275.993 287.524C272.77 282.415 272.613 278.641 273.006 276.126C273.399 273.925 274.421 272.746 277.644 265.593C278.98 262.606 280.317 259.54 281.653 256.632C282.125 257.025 282.439 257.418 282.753 257.732C284.718 257.339 287.706 256.632 291.243 255.374C300.282 252.308 303.034 249.321 315.453 243.112C321.978 239.889 325.201 238.238 328.502 237.452C330.86 236.823 332.825 236.587 335.026 236.273C336.441 237.924 338.092 240.282 339.507 243.269C339.507 243.269 341.472 247.513 342.258 252.859C343.359 260.169 343.359 280.056 341.786 306.625L341.708 306.389Z" fill="#AD8971"/>
<path d="M284.09 204.909C284.011 206.167 282.753 207.739 276.858 209.547C276.465 211.983 276.229 214.027 275.993 215.678C272.77 238.081 272.692 244.448 273.399 250.736C273.714 253.33 274.107 255.688 274.5 257.418C273.949 258.518 273.556 259.776 273.085 261.269C268.054 276.126 266.482 275.969 266.639 280.764C266.639 282.257 266.875 285.637 267.975 288.467C268.29 289.332 268.761 290.275 269.39 290.982C266.561 292.083 263.416 292.555 260.351 291.533C252.804 288.86 250.997 278.327 249.739 271.016C248.009 260.64 249.66 252.465 251.783 242.247C253.748 233.05 256.499 225.189 260.036 214.813C261.058 211.905 262.001 209.311 262.787 207.188C262.945 207.188 263.102 207.188 263.259 207.188C263.18 206.953 263.102 206.717 263.023 206.402C262.394 203.651 262.08 199.485 263.731 195.004C263.731 194.847 263.809 194.69 263.888 194.611C264.438 193.275 265.146 192.096 266.01 191.074C266.875 190.052 267.897 189.109 268.997 188.48C271.355 186.987 274.107 186.122 276.937 186.279H277.015C280.395 186.436 282.282 186.594 283.461 187.93C284.09 188.716 284.09 189.423 283.854 190.209C283.539 191.231 282.832 192.175 282.36 193.354C282.282 193.59 282.203 193.825 282.125 193.983C281.417 196.734 280.631 199.328 280.71 201.136C280.71 202.236 281.024 202.865 281.417 203.258C282.439 204.28 283.932 204.044 283.854 204.909H284.09Z" fill="#FFA57D"/>
<path d="M266.089 190.996C265.224 192.096 264.517 193.275 263.967 194.533C263.888 194.69 263.809 194.847 263.809 194.926C262.159 199.407 262.473 203.573 263.102 206.245C263.102 206.245 262.866 206.796 262.787 207.11C259.407 207.424 254.927 207.817 252.333 208.132C251.311 207.817 250.053 207.189 249.11 206.009C246.516 202.787 247.617 197.284 250.525 194.219C252.018 192.725 253.669 191.939 255.005 191.625L266.01 190.996H266.089Z" fill="#39565B"/>
<path d="M293.365 202.787L281.574 203.258C281.181 202.865 280.867 202.158 280.867 201.136C280.788 199.25 281.574 196.656 282.282 193.983C282.282 193.747 282.439 193.511 282.518 193.354L293.129 192.568C291.636 193.668 290.693 195.555 290.693 197.599C290.693 199.878 291.793 201.844 293.444 202.865L293.365 202.787Z" fill="#5D7E82"/>
<path d="M297.61 192.646H297.531C296.824 192.332 296.116 192.253 295.33 192.332L293.837 192.489H293.129C291.636 193.59 290.693 195.476 290.693 197.599C290.693 199.878 291.793 201.843 293.444 202.865H295.959C298.789 202.629 300.99 200.35 300.99 197.599C300.99 195.398 299.575 193.511 297.688 192.725L297.61 192.646ZM296.274 200.586C294.78 200.586 293.522 199.249 293.522 197.52C293.522 195.791 294.78 194.454 296.274 194.454C297.767 194.454 299.025 195.791 299.025 197.52C299.025 199.249 297.767 200.586 296.274 200.586Z" fill="white"/>
<path d="M298.946 197.52C298.946 199.249 297.689 200.586 296.195 200.586C294.701 200.586 293.444 199.249 293.444 197.52C293.444 195.791 294.701 194.454 296.195 194.454C297.689 194.454 298.946 195.791 298.946 197.52Z" fill="#171D1E"/>
<path d="M309.479 192.175L297.531 192.646H297.453C296.745 192.332 296.038 192.253 295.252 192.332L293.758 192.489C293.365 190.838 292.736 186.672 295.33 183.842C295.645 183.528 295.959 183.214 296.431 182.899L304.606 182.27L309.165 181.956C307.671 183.056 306.728 184.943 306.728 186.987C306.728 189.266 307.829 191.231 309.401 192.253L309.479 192.175Z" fill="#5D7E82"/>
<path d="M312.309 189.974C313.829 189.974 315.06 188.602 315.06 186.908C315.06 185.215 313.829 183.843 312.309 183.843C310.79 183.843 309.558 185.215 309.558 186.908C309.558 188.602 310.79 189.974 312.309 189.974Z" fill="#171D1E"/>
<path d="M311.445 181.72L309.244 181.877C307.75 182.978 306.807 184.864 306.807 186.908C306.807 189.188 307.907 191.153 309.479 192.175H311.995C314.825 191.939 317.026 189.659 317.026 186.908C317.026 183.843 314.51 181.484 311.445 181.72ZM312.309 190.052C310.816 190.052 309.558 188.638 309.558 186.987C309.558 185.336 310.816 183.921 312.309 183.921C313.803 183.921 315.06 185.336 315.06 186.987C315.06 188.638 313.803 190.052 312.309 190.052Z" fill="white"/>
<path d="M299.418 179.048C298.317 179.048 296.352 179.205 294.544 180.384C290.064 183.293 290.457 189.188 290.457 189.502L283.932 190.131C284.168 189.424 284.168 188.638 283.539 187.852C282.439 186.437 280.474 186.358 277.094 186.201H277.015C274.107 186.044 271.355 186.83 269.076 188.402C268.919 187.616 268.919 186.515 269.233 185.415C270.098 182.114 272.849 180.541 273.556 180.148C276.308 178.576 279.059 178.969 279.924 179.126H299.496L299.418 179.048Z" fill="#39565B"/>
<path d="M304.684 182.192L296.509 182.821C296.038 183.135 295.723 183.45 295.409 183.764C292.815 186.673 293.444 190.76 293.837 192.411H293.129L282.518 193.197C282.989 192.018 283.697 191.075 284.011 190.053L290.535 189.424C290.535 189.424 290.142 183.293 294.623 180.306C296.431 179.126 298.396 178.969 299.496 178.969H299.968C300.44 178.969 301.933 178.969 303.191 179.991C303.977 180.62 304.449 181.406 304.684 182.113V182.192Z" fill="#171D1E"/>
<path d="M328.895 344.042C328.659 345.457 328.345 346.872 328.188 348.365C328.109 348.758 328.03 349.151 328.03 349.623C321.27 339.247 314.746 326.984 309.715 312.757C309.086 311.106 308.536 309.376 308.065 307.726C308.693 305.761 309.479 303.717 310.187 301.594C311.13 305.289 312.231 309.141 313.646 313.15C317.969 325.569 323.629 335.867 328.974 344.042H328.895Z" fill="#171D1E"/>
<path d="M404.514 355.911C402.785 359.37 398.147 360.156 395.632 360.706C394.61 360.942 393.666 361.099 392.802 361.335C373.465 365.659 374.408 370.689 358.294 371.711C351.534 372.104 343.987 370.689 328.816 367.938C324.572 367.152 320.327 366.287 316.24 365.108C309.165 363.065 302.562 360.078 297.374 355.283C295.33 353.396 293.287 351.038 292.579 347.736C291.321 341.998 294.78 336.889 296.352 334.373C300.282 328.242 303.505 320.382 307.986 307.726C308.458 309.377 309.086 311.106 309.637 312.757C314.667 326.984 321.192 339.247 327.952 349.623C327.637 351.903 327.559 354.418 328.738 356.933C331.882 363.615 340.607 364.794 341.079 364.794C343.28 365.03 345.402 364.794 347.21 364.401H347.368C351.769 364.165 356.643 363.693 361.595 362.75C365.683 362.043 369.534 361.178 373.229 360.156C374.722 359.763 376.216 359.37 377.631 358.898C385.57 356.462 392.723 353.475 398.619 350.409C400.427 349.78 401.999 348.994 403.335 348.129C403.492 348.051 403.649 347.894 403.728 347.815C403.964 348.365 404.2 348.994 404.357 349.544C405.064 351.588 405.3 353.868 404.357 355.911H404.514Z" fill="#AD8971"/>
<path d="M314.353 575.379V580.253" stroke="#070707" stroke-width="0.12" stroke-miterlimit="10"/>
<path d="M334.869 552.033L334.398 558.165L332.432 584.812L331.646 585.834C330.389 587.013 328.423 588.507 325.594 589.135C323.235 589.686 321.349 589.371 316.475 588.113C304.056 584.969 308.143 585.205 298.789 582.454C297.531 582.061 295.016 581.353 293.129 579.152C292.579 578.524 290.85 576.401 291.479 575.143C292.343 573.257 297.453 574.436 305.628 574.986C308.929 575.222 311.995 575.301 314.353 575.301L314.589 556.357V551.247C314.589 551.247 315.139 551.562 315.453 551.719C316.711 552.426 318.205 553.134 320.013 553.605C325.672 555.099 330.703 553.763 333.533 552.584C334.083 552.348 334.555 552.191 334.869 552.033Z" fill="#171D1E"/>
<path d="M343.201 410.7C344.695 410.778 346.346 410.857 348.075 410.7L358.53 409.206C361.91 408.42 364.818 407.241 367.176 406.14" stroke="#6D1212" stroke-width="0.11" stroke-linecap="round" stroke-linejoin="round"/>
<path d="M402.549 581.746V584.655C401.37 586.699 399.326 587.799 395.946 588.192C394.924 588.349 392.723 590.236 383.448 582.926C376.295 577.266 380.382 579.624 372.836 573.178C371.5 571.999 369.299 570.113 368.748 567.204C368.67 566.811 368.355 565.003 369.063 563.903C369.063 563.903 369.299 563.51 369.456 563.431C370.713 562.409 373.072 563.431 375.273 564.296C377.709 565.161 381.011 566.261 385.334 566.89C385.334 560.916 385.177 554.785 384.863 548.418C386.199 549.204 387.85 549.99 389.658 550.54C396.103 552.505 401.999 551.247 405.536 550.068C404.829 557.143 403.807 564.768 402.47 573.021L402.628 581.746H402.549Z" fill="#171D1E"/>
<path d="M292.815 445.758C291.714 449.374 288.963 452.125 286.055 453.854C284.718 454.719 283.461 455.191 282.203 455.584C278.273 456.684 274.185 455.977 270.412 454.247C264.91 451.575 260.036 446.701 257.364 442.063C257.049 441.592 256.813 441.041 256.578 440.57C254.612 436.797 253.669 432.788 253.433 429.015C253.276 427.05 253.197 425.242 253.276 423.512C253.276 422.176 253.433 420.918 253.512 419.818C253.826 416.752 254.377 414.315 254.691 413.058C255.791 408.106 256.42 402.996 257.757 398.201C258.779 394.585 259.958 391.127 258.621 387.196C258.385 386.489 257.992 385.86 257.678 385.231C255.163 385.624 252.647 385.388 250.603 384.602C248.481 383.816 246.752 382.48 245.651 380.751C244.001 378.157 243.215 373.912 245.494 371.004C248.56 366.995 255.005 368.567 255.791 368.803C258.071 369.431 259.8 370.61 260.979 371.79C265.067 370.689 273.163 369.353 279.452 373.833C288.413 380.2 287.548 393.721 287.234 399.38C286.605 407.791 284.168 407.319 283.932 414.08C283.775 418.01 284.483 421.311 285.583 424.298C288.806 433.102 295.409 438.447 292.972 446.072L292.815 445.758Z" fill="#876751"/>
<path d="M257.757 398.044C256.42 402.918 255.792 408.027 254.691 412.901C254.377 414.158 253.905 416.595 253.512 419.661C250.604 418.167 247.145 415.652 245.258 411.486C241.957 404.333 245.101 396.394 247.459 390.577C248.481 388.061 249.582 385.939 250.525 384.367C252.647 385.153 255.084 385.467 257.599 384.996C257.992 385.546 258.307 386.253 258.543 386.961C259.879 390.891 258.7 394.35 257.678 397.966L257.757 398.044Z" fill="#FFA57D"/>
<path d="M258.7 456.134C257.049 456.448 255.556 456.841 253.984 457.313L253.591 458.964C253.355 452.518 252.726 442.142 250.603 435.225C249.267 430.744 247.459 428.386 245.651 426.814C245.022 426.263 244.394 425.792 243.765 425.477C245.887 424.613 247.852 424.141 249.739 423.827C250.446 424.534 251.154 425.32 251.861 426.263C252.49 427.05 253.04 427.836 253.512 428.936C253.826 432.709 254.77 436.797 256.656 440.57C256.971 442.456 257.285 444.5 257.678 446.858C257.992 449.216 258.385 452.361 258.7 456.134Z" fill="#171D1E"/>
<path d="M192.435 527.901C191.649 528.766 189.212 531.124 187.247 530.495C183.317 529.237 183.867 517.053 183.946 515.56C184.024 513.595 184.26 512.023 184.417 510.686C184.81 511.158 185.203 511.472 185.596 511.708C188.426 513.831 192.435 514.066 196.523 512.651C196.994 516.346 197.151 523.342 192.514 527.901H192.435Z" fill="#FFA57D"/>
<path d="M304.213 461.165C303.348 459.907 302.169 458.728 300.99 457.784C299.968 456.998 298.868 456.37 297.924 455.898C298.003 451.575 297.924 444.579 297.217 437.74C297.06 436.168 296.824 433.967 295.802 431.373C295.488 430.587 295.095 429.801 294.701 429.093C296.352 430.351 298.632 432.473 300.518 435.696C303.27 440.491 303.741 445.05 303.82 447.566L304.213 461.243V461.165Z" fill="#F95623"/>
<path d="M295.173 454.955H294.308L286.133 453.854C289.042 452.125 291.714 449.452 292.894 445.758C295.33 438.055 288.649 432.709 285.505 423.984C287.155 424.534 289.042 425.32 291.007 426.5C291.793 427.6 292.501 428.858 293.129 430.43C294.151 433.024 294.466 435.146 294.623 436.718C295.33 443.557 295.33 450.632 295.33 454.955H295.173Z" fill="#F95623"/>
<path d="M306.099 466.824C306.099 466.824 305.706 467.296 305.392 467.375C304.842 467.61 304.056 467.689 303.034 467.61C301.619 467.61 299.654 467.296 297.374 467.06C288.099 466.274 283.382 467.453 279.452 467.768C277.723 467.768 276.15 467.768 274.421 467.296C273.635 467.06 272.849 466.746 271.906 466.353C268.683 464.781 268.526 463.602 263.18 460.929C259.407 459.042 256.106 457.942 253.905 457.313C255.398 456.92 256.971 456.527 258.621 456.134C259.329 455.977 260.036 455.82 260.744 455.741C262.001 456.527 263.574 457.47 265.303 458.492C270.098 461.401 271.513 462.187 273.714 462.737C275.364 463.208 276.544 463.287 279.138 463.444C282.989 463.759 283.539 463.444 289.907 463.444C294.937 463.444 297.453 463.444 298.396 463.602C300.911 463.837 301.933 464.073 302.248 463.602C302.641 462.973 301.54 461.008 295.173 455.584C295.173 455.348 295.173 455.191 295.173 454.955H295.33C296.038 455.191 296.902 455.505 297.924 455.977C298.946 456.37 299.968 456.999 300.99 457.863C302.169 458.807 303.348 459.986 304.291 461.243C305.942 463.366 306.885 465.567 306.099 466.824Z" fill="#2A3F44"/>
<path d="M303.977 518.076C302.09 518.704 300.047 519.333 297.924 519.962C291.007 521.849 283.146 523.263 274.421 523.735C272.377 523.892 270.334 523.892 268.447 523.892C269.233 523.499 270.255 522.792 271.277 521.77L272.535 520.276C274.343 515.167 276.229 508.486 277.172 500.782C277.408 499.053 277.565 497.166 277.644 495.201C278.037 489.384 277.801 483.017 276.622 476.336C276.072 473.113 275.364 470.047 274.5 467.217C276.229 467.768 277.801 467.768 279.531 467.689C279.924 469.183 280.552 471.148 281.417 473.427C283.618 479.48 285.112 480.895 287.863 487.026C291.714 495.516 291.636 498.503 293.68 498.896C297.06 499.446 300.833 491.428 301.226 490.563C305.077 482.546 304.606 474.056 303.191 467.61C304.213 467.61 304.999 467.61 305.549 467.375C306.335 470.126 306.964 472.956 307.514 476.021C310.501 493.079 307.357 508.014 304.056 517.997L303.977 518.076Z" fill="#2A3F44"/>
<path d="M301.147 490.563C300.754 491.428 296.981 499.446 293.601 498.896C291.557 498.581 291.636 495.516 287.784 487.026C285.033 480.895 283.618 479.48 281.338 473.427C280.552 471.148 279.924 469.183 279.452 467.689C283.382 467.375 288.099 466.196 297.374 467.06C299.732 467.296 301.619 467.532 303.034 467.61C304.449 474.056 304.92 482.467 301.069 490.563H301.147Z" fill="#171D1E"/>
<path d="M270.491 454.247C267.74 454.562 264.753 454.955 261.687 455.584C261.373 455.584 261.137 455.662 260.822 455.741C260.115 455.819 259.407 456.055 258.7 456.134C258.307 452.439 257.992 449.216 257.678 446.858C257.364 444.5 256.971 442.456 256.656 440.57C256.892 441.12 257.206 441.592 257.442 442.063C260.115 446.701 264.988 451.575 270.491 454.247Z" fill="#F95623"/>
<path d="M295.173 454.955C295.173 454.955 295.173 455.348 295.173 455.584L294.308 454.876H295.173V454.955Z" fill="#171D1E"/>
<path d="M302.248 463.601C301.933 464.073 300.911 463.837 298.396 463.601C297.374 463.523 294.937 463.523 289.906 463.444C283.618 463.444 282.989 463.759 279.137 463.444C276.622 463.208 275.364 463.13 273.714 462.737C271.513 462.108 270.098 461.4 265.303 458.492C263.573 457.47 262.001 456.527 260.744 455.741C261.058 455.741 261.294 455.584 261.608 455.584C264.674 454.955 267.661 454.562 270.412 454.247C274.107 455.977 278.194 456.763 282.203 455.584C283.461 455.269 284.718 454.719 286.055 453.854L294.23 454.876L295.094 455.584C301.462 461.007 302.562 462.973 302.169 463.601H302.248Z" fill="#171D1E"/>
<path d="M277.644 495.201C272.928 494.572 263.023 492.214 256.185 483.489C253.826 480.423 252.333 477.279 251.39 474.606C251.704 473.27 251.94 472.012 252.176 470.597C252.883 466.038 253.119 462.344 253.198 460.064L253.512 458.885L253.905 457.234C256.106 457.863 259.407 458.964 263.18 460.85C268.526 463.444 268.683 464.702 271.906 466.195C272.849 466.588 273.635 466.903 274.421 467.139C275.207 469.968 275.993 472.955 276.544 476.257C277.723 482.938 277.958 489.306 277.565 495.122L277.644 495.201Z" fill="#39565B"/>
<path d="M277.644 495.201C277.565 497.166 277.33 498.974 277.172 500.782C273.085 500.311 262.159 498.345 254.691 488.913C252.333 485.926 250.839 482.86 249.975 480.266C250.525 478.537 250.997 476.729 251.468 474.685C252.411 477.279 253.826 480.502 256.263 483.568C263.102 492.293 273.006 494.651 277.723 495.28L277.644 495.201Z" fill="white"/>
<path d="M277.094 500.782C276.15 508.485 274.264 515.088 272.456 520.276L271.198 521.77C270.176 522.792 269.233 523.42 268.368 523.892C267.582 524.364 266.796 524.521 266.246 524.6C258.7 526.093 251.154 515.796 248.796 512.494C246.595 509.507 245.494 507.935 244.708 505.577C241.957 497.48 246.359 491.271 249.896 480.187C250.761 482.781 252.254 485.847 254.612 488.834C262.08 498.267 273.006 500.232 277.094 500.703V500.782Z" fill="#39565B"/>
<path d="M253.433 428.936C252.962 427.914 252.411 427.05 251.783 426.342C251.075 425.399 250.368 424.613 249.66 423.906C250.997 423.67 252.176 423.591 253.276 423.512C253.197 425.242 253.276 427.05 253.433 429.015V428.936Z" fill="#F95623"/>
<path d="M297.924 455.898C296.902 455.427 296.038 455.191 295.409 454.955H295.173C295.252 450.632 295.173 443.557 294.544 436.718C294.387 435.146 294.151 432.945 293.051 430.351C292.422 428.858 291.714 427.521 290.928 426.421C291.714 426.814 292.501 427.364 293.287 427.914C293.68 428.229 294.073 428.543 294.623 428.936V429.015C295.016 429.722 295.33 430.508 295.723 431.294C296.745 433.888 297.06 436.089 297.138 437.662C297.846 444.5 297.924 451.496 297.846 455.82L297.924 455.898Z" fill="#171D1E"/>
<path d="M213.187 511.708C214.602 515.796 216.96 521.298 220.34 527.665C222.227 531.045 224.113 534.504 226.157 537.963" stroke="#171D1E" stroke-width="0.11" stroke-linecap="round" stroke-linejoin="round"/>
<path d="M237.476 572.785C237.319 573.178 236.454 573.65 236.454 573.65C232.524 576.087 229.773 578.445 227.965 580.174C225.057 583.004 223.406 585.284 219.711 587.092C219.161 587.406 214.838 589.45 213.894 588.349C213.659 588.035 213.659 587.642 213.894 587.013C214.209 586.306 214.759 585.441 215.467 584.34C217.353 581.589 220.262 577.816 221.519 573.807C221.755 573.178 222.07 571.999 222.934 570.584C223.091 570.349 223.249 570.113 223.406 569.877C224.506 568.383 225.371 568.148 226.707 566.182C228.279 563.903 227.965 563.038 229.223 561.938C230.245 561.073 231.502 560.759 232.603 560.68C232.996 560.68 233.389 560.68 233.782 560.68L236.454 568.934L236.612 569.484C236.612 569.484 237.634 571.842 237.319 572.628L237.476 572.785Z" fill="#F95623"/>
<path d="M514.484 683.305C440.594 696.354 380.382 700.284 337.778 701.385C295.723 702.485 248.088 701.227 247.852 697.297C247.616 693.76 285.583 689.672 285.347 687C285.347 686.528 284.09 686.214 281.889 686.057C291.086 682.362 296.352 677.488 295.881 673.401C295.488 669.628 290.142 666.012 285.112 665.698C276.308 665.069 269.626 674.266 268.368 673.165C266.796 671.75 280.081 657.68 276.858 653.121C275.286 650.92 270.412 651.47 267.347 652.57C257.364 656.108 253.984 669.156 252.962 668.763C251.94 668.37 256.813 656.265 257.364 640.544C257.757 629.146 255.398 627.259 254.298 626.63C251.468 625.294 247.381 627.809 245.022 629.932C242.271 632.447 240.621 635.906 239.599 639.365C239.048 634.963 237.869 630.089 235.275 625.766C233.074 622.071 228.515 616.333 225.214 617.276C220.419 618.691 219.476 634.57 221.912 647.068C223.563 655.715 226.707 662.396 225.528 663.025C223.877 663.811 218.061 650.762 213.973 651.706C210.043 652.649 207.606 666.798 213.266 677.646C215.388 681.733 218.218 684.642 220.89 686.685C211.536 686.843 201.475 686.921 190.942 686.921C165.945 686.764 144.643 686.056 129 685.349C146.686 666.798 154.311 652.649 157.77 642.587C158.32 641.015 162.565 628.595 167.045 628.831C170.504 629.067 171.762 636.771 174.906 636.692C177.579 636.613 179.229 630.796 180.723 626.709C183.238 619.87 186.854 614.211 191.256 609.023C195.972 603.363 201.475 598.332 207.449 592.83C209.178 591.258 211.458 589.214 214.288 587.013C214.052 587.563 213.973 588.035 214.288 588.349C215.231 589.45 219.476 587.327 220.104 587.091C223.799 585.205 225.45 582.925 228.358 580.174C230.087 578.445 232.917 576.087 236.847 573.65C236.847 573.65 237.634 573.178 237.869 572.785C238.184 571.999 237.162 569.641 237.162 569.641L237.005 569.091C239.834 568.069 242.822 567.126 245.809 566.182C249.66 565.003 253.433 563.981 257.049 563.117C265.774 565.475 270.491 562.881 278.902 561.466C279.295 561.387 286.055 560.758 290.064 559.029C294.623 557.143 294.151 557.064 294.466 556.671C295.173 555.649 295.881 554.627 296.431 553.605C301.383 554.47 307.671 555.492 314.982 556.435L314.746 575.379C312.309 575.379 309.322 575.379 306.021 575.065C297.846 574.515 292.736 573.335 291.872 575.222C291.243 576.48 293.051 578.523 293.522 579.231C295.409 581.432 297.924 582.218 299.182 582.532C308.536 585.284 304.449 584.969 316.868 588.192C321.742 589.45 323.628 589.764 325.987 589.214C328.816 588.585 330.782 587.013 332.039 585.912L332.825 584.891L334.791 558.243C340.686 558.558 344.302 558.558 351.141 559.737C355.464 560.444 361.988 561.623 369.377 563.903C368.748 565.082 368.984 566.811 369.063 567.204C369.613 570.191 371.814 572.078 373.15 573.178C380.696 579.624 376.609 577.266 383.762 582.925C393.038 590.236 395.239 588.428 396.26 588.192C399.641 587.799 401.684 586.62 402.942 584.655V581.746C403.964 582.454 405.064 583.24 406.008 583.869C411.196 587.642 414.811 590.786 417.877 594.952C419.999 597.861 422.515 601.712 427.153 602.813C433.598 604.463 437.45 599.275 443.581 599.04C448.769 598.882 453.407 602.498 457.259 606.979C460.089 610.202 462.447 613.818 464.412 616.883C471.015 626.788 475.574 634.412 479.426 640.779C479.426 640.779 479.426 640.779 479.426 640.858C485.635 651.234 490.037 658.466 497.741 667.348C503.007 673.401 508.588 678.51 514.248 682.834C514.405 682.991 514.563 683.069 514.72 683.227L514.484 683.305Z" fill="#D1BD9D"/>
<path d="M295.881 673.322C296.352 677.41 291.007 682.283 281.889 685.978C273.478 685.27 250.604 686.292 220.812 686.685C218.218 684.641 215.309 681.733 213.187 677.645C207.527 666.798 209.964 652.649 213.894 651.705C217.982 650.684 223.877 663.811 225.45 663.025C226.629 662.396 223.484 655.714 221.834 647.068C219.476 634.569 220.34 618.691 225.135 617.276C228.358 616.333 232.917 622.071 235.197 625.765C237.791 630.089 239.048 634.884 239.52 639.364C240.542 635.906 242.193 632.447 244.944 629.932C247.302 627.731 251.39 625.294 254.219 626.63C255.398 627.18 257.678 629.067 257.285 640.543C256.735 656.265 251.94 668.37 252.883 668.763C253.905 669.156 257.285 656.107 267.268 652.57C270.412 651.47 275.207 650.919 276.779 653.12C280.002 657.68 266.718 671.671 268.29 673.165C269.548 674.265 276.229 665.068 285.033 665.697C290.064 666.09 295.409 669.628 295.802 673.401L295.881 673.322Z" fill="#E07C38"/>
<path d="M438.393 579.31C438.393 579.31 442.952 574.436 451.206 570.034C457.652 566.654 467.635 563.117 469.443 565.711C471.093 568.069 465.198 574.908 464.097 576.244C452.621 589.45 436.114 592.987 436.114 593.695C436.271 594.166 444.053 591.729 453.014 590.157C458.595 589.135 474.866 586.227 476.36 589.607C477.146 591.494 473.923 595.817 456.866 607.058C453.014 602.577 448.376 599.04 443.188 599.118C437.057 599.354 433.127 604.542 426.76 602.891C422.122 601.712 419.685 597.861 417.484 595.031C414.418 590.943 410.803 587.72 405.615 583.947C406.794 576.48 408.68 567.204 411.903 556.75C419.842 531.203 433.284 506.913 437.057 508.25C440.28 509.35 435.642 528.609 437.529 529.08C439.022 529.395 441.695 517.289 448.062 503.926C457.416 484.275 472.823 466.038 477.382 468.239C479.897 469.418 478.718 476.729 477.618 483.646C475.967 494.022 471.958 503.533 466.141 512.73C464.019 516.032 461.896 519.019 459.774 521.691C453.643 527.037 450.027 532.46 449.241 533.561C450.263 532.539 454.665 528.137 459.774 521.691C464.726 517.289 471.329 512.809 479.426 510.608C487.836 508.328 498.763 508.328 499.942 511.63C500.492 513.202 498.763 515.324 495.854 518.076C482.413 530.731 467.163 535.447 467.556 536.862C467.871 537.884 476.124 534.583 485.793 536.312C494.125 537.806 502.85 541.815 502.457 544.566C501.986 547.946 488.072 544.88 471.958 551.011C449.948 559.344 437.922 579.152 438.315 579.545L438.393 579.31Z" fill="#E07C38"/>
<path d="M536.808 679.768C535.865 682.283 531.148 684.327 515.82 683.069H515.742C515.191 683.069 514.563 682.991 513.934 682.912C508.274 678.589 502.693 673.479 497.426 667.427C489.723 658.544 485.321 651.312 479.111 640.936V640.858C480.29 636.927 481.784 632.526 483.828 627.888C485.242 624.665 490.43 612.874 492.867 613.503C494.832 614.053 494.282 623.014 493.339 628.674C492.238 635.591 490.116 640.15 490.273 640.229C490.588 640.229 494.439 631.504 500.02 616.883C503.086 608.944 504.187 604.778 507.724 596.052C511.261 587.248 514.169 580.331 515.427 580.646C517.078 581.039 515.506 592.829 515.427 593.537C511.497 621.835 494.282 643.452 494.911 643.845C495.383 643.845 499.942 636.141 508.274 628.438C513.383 623.643 521.951 617.119 523.681 618.691C525.332 620.184 520.615 628.438 517.235 633.39C508.51 646.124 497.977 652.177 498.763 653.435C499.392 654.457 505.68 649.583 515.427 648.325C524.86 647.068 535.943 649.19 536.494 652.649C537.044 656.029 527.69 661.688 518.807 662.71C514.798 663.182 510.868 662.71 510.868 662.946C510.868 663.496 523.131 662.632 531.384 670.099C532.092 670.728 538.144 676.309 536.808 679.846V679.768Z" fill="#B26632"/>
<path d="M221.991 566.339C219.633 569.877 217.196 573.571 214.916 577.423C214.288 578.523 213.58 579.702 212.951 580.803C210.436 581.982 207.842 583.161 205.169 584.262C203.361 584.969 201.632 585.755 199.824 586.463C201.789 580.331 203.833 574.121 205.877 567.833C208.235 560.523 210.672 553.291 213.108 546.138C216.095 552.976 219.004 559.658 221.991 566.339Z" fill="#171D1E"/>
<path d="M234.489 549.204C233.232 550.776 232.052 552.348 230.873 553.92C230.638 553.055 230.402 552.191 230.166 551.326C228.908 546.845 227.651 542.443 226.236 538.042C228.672 541.972 231.345 545.745 234.489 549.204Z" fill="#171D1E"/>
<path d="M215.702 584.419C214.995 585.519 214.366 586.384 214.13 587.091C211.3 589.292 209.1 591.258 207.292 592.908C201.318 598.411 195.815 603.441 191.099 609.101C189.841 609.18 187.247 609.258 186.54 608.551C185.989 608.001 185.518 605.957 186.147 605.485C191.099 602.262 196.13 591.022 197.623 587.327C198.33 587.091 199.038 586.777 199.824 586.463C201.553 585.755 203.361 585.048 205.169 584.262C207.842 583.082 210.436 581.982 212.951 580.803C213.58 580.567 214.209 580.253 214.759 580.017L215.702 584.576V584.419Z" fill="#F95623"/>
<path d="M363.718 291.454C364.425 292.24 365.447 293.498 366.547 295.07C368.355 297.743 369.534 300.101 371.421 304.346C374.408 311.184 373.779 310.477 374.801 312.521C377.002 316.765 379.596 321.639 384.784 323.604C389.422 325.333 393.902 323.919 395.789 323.29C401.213 321.482 404.278 317.787 405.379 316.451C408.837 312.128 409.623 307.726 410.252 304.424C410.803 301.516 411.431 297.428 410.174 292.398C408.68 286.895 405.615 283.201 403.807 281.393" stroke="#171D1E" stroke-width="0.11" stroke-linecap="round" stroke-linejoin="round"/>
<path d="M383.526 293.498C384.391 294.834 385.177 296.328 385.963 297.9C389.422 305.132 390.129 312.127 390.051 317.158" stroke="#171D1E" stroke-width="0.11" stroke-linecap="round" stroke-linejoin="round"/>
<path d="M394.374 290.197C395.239 291.533 396.025 293.026 396.811 294.598C400.269 301.83 400.977 308.826 400.898 313.857" stroke="#171D1E" stroke-width="0.11" stroke-linecap="round" stroke-linejoin="round"/>
<path d="M321.349 372.654C320.563 374.855 319.698 377.999 319.62 381.93C319.462 388.218 321.428 393.092 322.685 395.607" stroke="#6D1212" stroke-width="0.11" stroke-linecap="round" stroke-linejoin="round"/>
<path d="M328.423 376.821C331.882 376.821 335.734 376.821 339.9 376.349C342.258 376.113 344.459 375.799 346.503 375.484L345.874 389.791L339.271 399.931L328.266 394.428L326.537 385.86" stroke="#6D1212" stroke-width="0.11" stroke-linecap="round" stroke-linejoin="round"/>
<path d="M367.805 375.72C370.085 375.799 372.914 375.72 376.137 375.091C381.718 373.912 385.806 371.554 388.243 369.824" stroke="#6D1212" stroke-width="0.11" stroke-linecap="round" stroke-linejoin="round"/>
<path d="M366.862 375.563L370.871 389.397L381.404 395.136L388.007 385.467L389.107 370.296" stroke="#6D1212" stroke-width="0.11" stroke-linecap="round" stroke-linejoin="round"/>
<path d="M372.836 409.914C373.15 415.888 373.779 422.176 374.565 428.701C376.923 447.016 380.932 463.366 385.413 477.436" stroke="#6D1212" stroke-width="0.11" stroke-linecap="round" stroke-linejoin="round"/>
<path d="M259.879 457.785C261.451 458.492 262.866 459.121 263.967 459.671C266.325 460.85 268.368 461.872 270.805 463.601C272.613 464.859 273.085 465.409 274.578 465.96C275.915 466.431 277.094 466.51 278.509 466.588C281.81 466.588 283.854 466.117 285.898 465.881C288.413 465.567 290.85 465.645 295.723 465.881C301.855 466.195 303.741 466.746 304.291 465.881C304.763 465.095 304.449 463.366 299.418 458.413" stroke="#171D1E" stroke-width="0.11" stroke-linecap="round" stroke-linejoin="round"/>
<path d="M278.823 469.654C279.295 472.327 279.688 475.235 280.002 478.144C281.496 493.629 279.295 507.306 276.308 518.075" stroke="#171D1E" stroke-width="0.11" stroke-linecap="round" stroke-linejoin="round"/>
<path d="M304.449 469.654C305.077 472.484 305.706 476.257 306.099 480.659C306.257 482.546 306.807 489.62 305.785 498.974C305.313 503.612 304.37 509.35 302.562 515.874" stroke="#171D1E" stroke-width="0.11" stroke-linecap="round" stroke-linejoin="round"/>
<path d="M254.455 474.449C254.612 476.729 255.163 478.458 255.792 479.716C259.879 488.362 271.434 489.62 272.692 489.699" stroke="#171D1E" stroke-width="0.11" stroke-linecap="round" stroke-linejoin="round"/>
<path d="M246.359 498.817C246.673 500.389 247.223 502.747 248.403 505.42C249.817 508.485 252.018 513.437 257.206 516.267C261.844 518.783 266.561 518.39 268.761 517.997L270.962 511.394L272.613 503.297" stroke="#171D1E" stroke-width="0.11" stroke-linecap="round" stroke-linejoin="round"/>
<path d="M255.949 496.223C257.364 497.638 259.329 499.289 262.001 500.782C265.146 502.59 268.054 503.533 270.255 504.005" stroke="#171D1E" stroke-width="0.11" stroke-linecap="round" stroke-linejoin="round"/>
<path d="M237.319 461.164C238.184 460.064 239.048 458.806 239.834 457.313C242.035 453.304 242.664 449.452 242.9 446.78" stroke="#C93D18" stroke-width="0.22" stroke-linecap="round" stroke-linejoin="round"/>
<path d="M243.057 525.15C244.001 527.587 245.809 531.674 249.424 535.526C259.25 545.902 273.321 545.43 281.103 545.195C291.321 544.88 294.544 541.815 295.881 540.321C297.453 538.434 298.16 536.469 298.553 535.054" stroke="#171D1E" stroke-width="0.11" stroke-linecap="round" stroke-linejoin="round"/>
<path d="M256.813 548.103C258.779 549.046 261.844 550.147 265.774 550.618C269.783 551.011 273.006 550.54 275.129 550.068" stroke="#171D1E" stroke-width="0.11" stroke-linecap="round" stroke-linejoin="round"/>
<path d="M288.177 548.26C289.042 548.181 290.457 547.867 292.029 547.081C293.601 546.295 294.623 545.273 295.252 544.565" stroke="#171D1E" stroke-width="0.11" stroke-linecap="round" stroke-linejoin="round"/>
<path d="M320.013 277.856C321.742 277.227 323.943 276.283 326.144 274.554C330.389 271.331 332.432 267.48 333.376 265.279" stroke="#876751" stroke-width="0.11" stroke-miterlimit="10"/>
<path d="M295.566 282.886C298.317 282.179 301.462 281.078 304.606 279.349C317.34 272.51 323 260.562 325.043 255.374" stroke="#876751" stroke-width="0.11" stroke-miterlimit="10"/>
</svg>
