<?xml version="1.0" encoding="UTF-8"?>
<svg id="Layer_2" data-name="Layer 2" xmlns="http://www.w3.org/2000/svg" viewBox="0 0 1200 909.96">
  <defs>
    <style>
      .cls-1 {
        fill: #fff;
      }

      .cls-2 {
        fill: #bc8f6d;
      }

      .cls-3 {
        fill: #d5aa81;
      }

      .cls-4 {
        fill: #13b1e2;
      }

      .cls-5 {
        fill: #4dcbe8;
      }
    </style>
  </defs>
  <g id="_Слой_1" data-name="Слой 1">
    <g>
      <path class="cls-1" d="M1200,468.76v441.2H0V414.02c32.27,3.59,51.24,15.73,69.69,27.55,21.84,13.98,42.46,27.19,84.59,27.19s62.76-13.21,84.6-27.19c21.96-14.07,44.67-28.61,89.68-28.61s67.73,14.54,89.69,28.61c21.84,13.98,42.46,27.19,84.6,27.19s62.76-13.21,84.59-27.19c21.97-14.07,44.68-28.61,89.69-28.61s67.73,14.54,89.69,28.61c21.84,13.98,42.46,27.19,84.6,27.19s62.76-13.21,84.59-27.19c21.97-14.07,44.69-28.61,89.7-28.61s67.73,14.54,89.69,28.61c21.84,13.98,42.47,27.19,84.6,27.19Z"/>
      <path class="cls-4" d="M1200,468.76v440.81H0V414.02c32.27,3.59,51.24,15.73,69.69,27.55,21.84,13.98,42.46,27.19,84.59,27.19s62.76-13.21,84.6-27.19c21.96-14.07,44.67-28.61,89.68-28.61s67.73,14.54,89.69,28.61c21.84,13.98,42.46,27.19,84.6,27.19s62.76-13.21,84.59-27.19c21.97-14.07,44.68-28.61,89.69-28.61s67.73,14.54,89.69,28.61c21.84,13.98,42.46,27.19,84.6,27.19s62.76-13.21,84.59-27.19c21.97-14.07,44.69-28.61,89.7-28.61s67.73,14.54,89.69,28.61c21.84,13.98,42.47,27.19,84.6,27.19Z"/>
      <path class="cls-5" d="M1200,468.76v6.2c-45.01,0-67.73-14.54-89.69-28.61-21.84-13.98-42.47-27.19-84.6-27.19s-62.76,13.21-84.6,27.19c-21.97,14.07-44.68,28.61-89.69,28.61s-67.73-14.54-89.69-28.61c-21.84-13.98-42.47-27.19-84.6-27.19s-62.76,13.21-84.59,27.19c-21.97,14.07-44.68,28.61-89.69,28.61s-67.73-14.54-89.69-28.61c-21.84-13.98-42.46-27.19-84.6-27.19s-62.75,13.21-84.59,27.19c-21.96,14.07-44.68,28.61-89.69,28.61s-67.72-14.54-89.69-28.61c-18.06-11.57-35.31-22.61-64.59-26.07v-6.26c32.27,3.59,51.24,15.73,69.69,27.55,21.84,13.98,42.46,27.19,84.59,27.19s62.76-13.21,84.6-27.19c21.96-14.07,44.67-28.61,89.68-28.61s67.73,14.54,89.69,28.61c21.84,13.98,42.46,27.19,84.6,27.19s62.76-13.21,84.59-27.19c21.97-14.07,44.68-28.61,89.69-28.61s67.73,14.54,89.69,28.61c21.84,13.98,42.46,27.19,84.6,27.19s62.76-13.21,84.59-27.19c21.97-14.07,44.69-28.61,89.7-28.61s67.73,14.54,89.69,28.61c21.84,13.98,42.47,27.19,84.6,27.19Z"/>
    </g>
    <g>
      <path class="cls-5" d="M600,512.31c-244.66,0-443,41.27-443,92.19s198.34,92.19,443,92.19,443-41.27,443-92.19-198.34-92.19-443-92.19Zm0,157.31c-213.24,0-386.1-32.56-386.1-72.73s172.86-72.74,386.1-72.74,386.1,32.56,386.1,72.74-172.86,72.73-386.1,72.73Z"/>
      <path class="cls-5" d="M600,537.33c-157.95,0-286,26.43-286,59.02s128.04,59.02,286,59.02,286-26.43,286-59.02-128.04-59.02-286-59.02Zm0,100.72c-137.66,0-249.26-20.85-249.26-46.57s111.6-46.57,249.26-46.57,249.26,20.85,249.26,46.57-111.6,46.57-249.26,46.57Z"/>
      <path class="cls-5" d="M600,560.99c-71.45,0-129.38,11.96-129.38,26.71s57.93,26.71,129.38,26.71,129.38-11.96,129.38-26.71-57.93-26.71-129.38-26.71Zm0,45.58c-62.28,0-112.76-9.44-112.76-21.08s50.49-21.08,112.76-21.08,112.76,9.44,112.76,21.08-50.49,21.08-112.76,21.08Z"/>
    </g>
    <g>
      <path class="cls-3" d="M775.34,176.39c-19.76-8.89-41.54-.29-54.48,15.3-7.61,9.13-14.92,18.27-22.82,27.08-23.93,26.78-37.08-27.69-35.88-45.06,1.2-17.56,3.76-35.26,5.25-52.87,.95-11.36,3.77-22.69,3.97-34.14,.21-9.84,2.23-17.65,2.43-39.44,.21-21.82-8.56-28.11-15.17-29.14-10.21-1.57-15.17,8.27-17.73,17.69-.99,3.64-1.66,7.24-2.11,10.04-3.52,22.07-6.08,44.32-9.76,66.39-.04,.21-.08,.41-.13,.66-1.53,9.13-3.02,18.43-5.7,27.32-.04,.29-.17,.62-.33,.91,0,.05,0,.13-.04,.17-.62,1.82-1.73,4.46-3.1,6.45-.21,.29-.46,.58-.66,.83-.33,.46-.7,.83-1.03,1.03-.33,.29-.66,.5-1.03,.62-.29,.13-.58,.17-.87,.13v-.04c-1.24-.04-2.44-1.41-3.48-4.88-1.07-3.72-.45-8.6-.82-12.52-1.62-17.82-3.4-35.06-7.24-52.54-4.22-19.22-4.22-39.35-10.87-58.08-3.02-8.43-6.08-19.02-15.42-21.7-1.36-.41-2.73-.58-4.09-.58-5.21,0-10.29,2.73-12.81,7.19-.33,.54-.62,1.12-.87,1.74-.25,.62-.45,1.2-.58,1.86-2.11,10.04,.25,21.49,1.74,31.37,.37,2.52,.78,5.37,1.15,8.39,.13,.91,.25,1.82,.33,2.77,1.24,10.17,2.53,22.37,3.6,33.61,.12,1.03,.21,2.07,.29,3.06,.04,.42,.09,.83,.13,1.24,.17,1.57,.29,3.1,.41,4.63,.09,.99,.17,1.9,.25,2.85,.45,4.88,.86,9.35,1.19,13.02,.25,2.57,.54,5.29,.91,8.11,.13,.54,.25,1.45,.33,2.6,1.74,13.27,4.05,27.37,3.35,30.72-.04,.13-.13,.25-.13,.37-.08,.21-.21,.33-.33,.33-.09,.04-.21,.04-.29,0-.09-.04-.17-.13-.25-.21-2.73-1.99-4.42-14.76-5.29-18.89-.95-4.3-8.52-34.07-13.39-51.63-4.84-17.53-5.5-36.54-11.53-49.03-6.04-12.52-10.46-13.23-17.4-12.07-4.5,.78-7.52,4.34-9.47,8.84-.74,1.7-1.32,3.52-1.78,5.38-.13,.49-.25,.99-.33,1.49-.99,4.71-1.24,9.55-1.11,12.9,.41,10.67,3.56,21.42,4.88,31.75,2.57,20.17,3.93,39.93,9.31,59.73,.04,.17,.12,.45,.21,.78,.08,.29,.21,.66,.33,1.07,.82,2.9,2.48,8.56,3.97,14.55,.04,.13,.04,.21,.08,.33,2.61,10.46,4.76,21.87,1.57,22.11-.08,0-.21-.04-.33-.04-6.65-1.03-14.63-17.2-18.97-22.78-4.3-5.62-18.56-30.47-28.03-48.12-9.47-17.65-15.95-28.48-27.98-23.07-.62,.28-1.19,.59-1.71,.95-.02,.01-.05,.03-.06,.04-3.39,2.35-4.69,6.34-4.55,11.61,0,.5,.04,.99,.04,1.49,.04,.54,.08,1.12,.13,1.7,1.07,9.22,5.54,21.5,10.79,35.02,9.55,24.72,21.13,41.09,34.35,66.59,13.19,25.51,15.79,54.07,21.5,75.36,5.74,21.29,17.48,54.53,22.11,69.91,.17,.54,.29,1.65,.33,3.26,.01,.27,.03,.55,.03,.85,0,.15,.01,.3,.02,.46,.01,.35,.02,.73,.03,1.13,0,.13,0,.26,0,.4,0,.02,0,.05,0,.07,0,.17,0,.33,0,.5,.02,1.79,0,3.92-.04,6.36-.01,.61-.02,1.23-.03,1.87v.03c0,.41-.02,.82-.03,1.24-.01,.43-.02,.87-.03,1.33v.05c-.01,.51-.02,1.03-.04,1.55,0,.14-.01,.29-.02,.43,0,.13,0,.26-.01,.39,0,.23-.01,.47-.02,.7-.01,.23-.02,.47-.03,.71-.02,.79-.05,1.61-.07,2.45,0,0,0,.01,0,.02-.02,.83-.05,1.67-.09,2.54,0,.06,0,.13,0,.19-.02,.46-.03,.91-.05,1.38-.01,.39-.03,.79-.05,1.19-.03,.87-.07,1.77-.11,2.67-.04,1.07-.09,2.19-.13,3.31,0,.25-.02,.49-.02,.74-.03,.69-.06,1.39-.09,2.1-.02,.28-.03,.56-.05,.84-.04,.91-.08,1.86-.13,2.77-.08,1.28-.12,2.57-.16,3.89,0,.11-.01,.21-.01,.32-.02,.38-.03,.77-.05,1.15,0,.17-.01,.33-.02,.49-.27,6.19-.59,12.77-.96,19.6-.03,.64-.06,1.28-.1,1.92-.03,.54-.06,1.1-.09,1.65-.07,1.23-.14,2.47-.19,3.73-.01,.22-.02,.43-.02,.65-.17,3.2-.34,6.44-.53,9.71-.1,2-.21,4.02-.33,6.04-.15,2.77-.31,5.56-.47,8.35-.46,8.15-.95,16.33-1.37,24.39-.02,.51-.03,1.01-.06,1.51-.01,.13-.02,.26-.02,.4-.03,.67-.07,1.34-.11,2.02,0,.21-.02,.42-.03,.63-.06,.88-.11,1.75-.17,2.63h0c-.1,1.68-.19,3.35-.26,5,0,.07,0,.14-.01,.21-.07,1.77-.19,3.52-.29,5.29,0,.14-.02,.28-.03,.42-.13,1.94-.25,3.84-.33,5.78-.01,.29-.02,.58-.03,.86,0,.03,0,.07,0,.1-.03,.81-.09,1.61-.14,2.39,0,.07,0,.15-.01,.22s-.01,.15-.02,.22c-.18,2.95-.34,5.84-.51,8.67h0c-.52,9.21-.97,17.73-1.31,25.18-.15,3.14-.29,6.1-.41,8.85,0,.03,0,.06,0,.09-.02,.61-.05,1.2-.08,1.78-.01,.31-.03,.61-.04,.91-.01,.35-.03,.71-.05,1.06-.01,.35-.03,.69-.04,1.03-.02,.39-.03,.78-.05,1.16-.01,.3-.02,.6-.03,.9-.01,.3-.02,.59-.03,.88-.02,.59-.05,1.17-.06,1.72-.03,.83-.06,1.62-.09,2.38,0,.22-.01,.43-.02,.64-.01,.31-.02,.62-.03,.91v.07c-.02,.43-.03,.86-.03,1.26-.01,.37-.02,.73-.02,1.07-.01,.45-.02,.86-.02,1.26v.09l-2.27,36.4c48.31,2.46,96.47,2.57,144.47,0l-1.21-18.96c-.22-4.16-2.18-32.25-4.54-67.21-.62-9.26-1.27-19.01-1.93-28.92-3.85-58.31-7.76-122.32-6.6-127.3,3.18-13.35,28.48-40.14,43.07-59.98,14.51-19.84,26.25-40.51,34.23-54.85,7.94-14.31,21.04-26.42,37.16-40.47,16.16-14.06,9.34-19.84,2.27-22.98Z"/>
      <path class="cls-2" d="M573.66,153.16c.7-3.35-1.61-17.44-3.35-30.71-.08-1.16-.21-2.07-.33-2.6-.37-2.81-.66-5.54-.91-8.1-.33-3.68-.74-8.14-1.2-13.02v-.5c-.08-.79-.12-1.57-.25-2.36-.12-1.53-.25-3.06-.41-4.63-.04-.41-.08-.83-.12-1.24-.08-.99-.17-2.03-.29-3.06-1.07-11.24-2.36-23.44-3.6-33.61-.08-.95-.21-1.86-.33-2.77-.37-3.02-.79-5.87-1.16-8.39-1.49-9.88-3.84-21.33-1.74-31.38,.12-.66,.33-1.24,.58-1.86,.25-.62,.54-1.2,.87-1.74,.58,6.61,2.07,13.31,3.22,19.39,3.47,18.15,7.85,52.04,10.09,69.24,2.03,15.58,1.24,51.71-1.07,57.34Z"/>
      <path class="cls-2" d="M617.02,150.22c.37-.12,.7-.33,1.03-.62-.83,.83-1.49,1.07-1.9,.74,.29,.04,.58,0,.87-.12Z"/>
      <path class="cls-2" d="M640.91,35.8c-2.15,19.39-3.76,38.86-6.24,58.24-1.24,9.34-3.1,18.81-4.75,28.15-2.11,11.82-6.74,21.16-10.17,25.55,1.36-1.98,2.48-4.63,3.1-6.45,.04-.04,.04-.12,.04-.17,.17-.29,.29-.62,.33-.91,2.69-8.89,4.18-18.19,5.7-27.32,.04-.25,.08-.45,.12-.66,3.68-22.07,6.24-44.31,9.76-66.39,.45-2.81,1.12-6.41,2.11-10.05Z"/>
      <path class="cls-2" d="M517.86,280.25c5.74,21.27,17.46,54.52,22.11,69.91,.15,.47,.25,1.41,.32,2.74,.01,.27,.03,.55,.03,.85,0,.15,.01,.3,.02,.46,.01,.35,.02,.73,.03,1.13,0,.13,0,.26,0,.4,0,.02,0,.05,0,.07,0,.17,0,.33,0,.5,.02,1.79,0,3.92-.04,6.36-.01,.61-.02,1.23-.03,1.87v.03c0,.41-.02,.82-.03,1.24-.01,.43-.02,.87-.03,1.33v.05c-.02,.65-.03,1.31-.06,1.99,0,.13,0,.26-.01,.39,0,.23-.01,.47-.02,.7-.03,1.02-.06,2.07-.1,3.16,0,0,0,.01,0,.02-.02,.83-.05,1.67-.09,2.54,0,.06,0,.13,0,.19-.02,.46-.03,.91-.05,1.38-.01,.39-.03,.79-.05,1.19-.07,2.15-.17,4.39-.26,6.72-.03,.69-.06,1.39-.09,2.1-.1,2.51-.22,5.13-.35,7.81-.02,.38-.03,.77-.05,1.15,0,.17-.01,.33-.02,.49-.29,6.18-.61,12.76-.96,19.6-.03,.64-.06,1.28-.1,1.92-.09,1.78-.18,3.57-.28,5.38-.18,3.41-.36,6.86-.55,10.36-.1,2-.21,4.02-.33,6.04-.61,11.33-1.26,22.92-1.89,34.26-.01,.13-.02,.26-.02,.4-.04,.67-.07,1.34-.11,2.02,0,.21-.02,.42-.03,.63-.05,.89-.1,1.77-.15,2.65-.09,1.67-.19,3.33-.28,4.98,0,.07,0,.14-.01,.21-.1,1.78-.19,3.54-.29,5.29,0,.14-.02,.28-.03,.42-.12,2.24-.25,4.46-.37,6.65,0,.03,0,.07,0,.1-.05,.8-.09,1.6-.14,2.39,0,.07,0,.15-.01,.22-.17,3.04-.33,6.02-.49,8.93-.79,14.39-1.45,27.14-1.88,36.78-.01,.35-.03,.71-.05,1.06-.01,.35-.03,.69-.04,1.03-.02,.39-.03,.78-.05,1.16-.01,.3-.02,.6-.03,.9-.01,.3-.02,.59-.03,.88-.02,.59-.05,1.17-.06,1.72-.03,.83-.06,1.62-.09,2.38,0,.22-.01,.43-.02,.64-.01,.31-.02,.62-.03,.91v.07c-.01,.43-.02,.86-.03,1.26-.01,.37-.02,.73-.02,1.07-.01,.45-.02,.86-.02,1.26v.09c-.01,1.45,0,2.56,.04,3.28l-2.19,33.12h24.1c-.09-26.7-.14-52.61-.12-69.72,0-10.97,.04-18.32,.1-19.94,.09-2.06,.17-4.69,.25-7.79,.86-34.48,1.24-127.46-2.29-153.77-3.45-25.65-24.3-77.35-25.03-79.66-6.54-21.03-9.13-49.51-23.3-74.5-14.18-24.95-27.25-34.47-38-65.21-5.46-15.62-8.22-29.03-8.58-38.57-.02,.01-.05,.03-.06,.04-10.27,6.31-2.84,26.49,6.4,50.32,9.55,24.73,21.14,41.11,34.34,66.58,13.19,25.51,15.8,54.11,21.53,75.38Z"/>
      <path class="cls-2" d="M534.22,181.39c-.62,.04-1.12-.08-1.53-.41,3.18-.25,1.03-11.66-1.57-22.12-.04-.12-.04-.21-.08-.33-1.49-5.99-3.14-11.66-3.97-14.55-.12-.41-.25-.79-.33-1.07-.08-.33-.17-.62-.21-.79-5.37-19.8-6.74-39.56-9.3-59.73-1.32-10.33-4.46-21.08-4.88-31.75-.12-3.35,.12-8.18,1.12-12.9,.08-.5,.21-.99,.33-1.49,.45-1.86,1.03-3.68,1.78-5.37-.08,2.27-.04,4.38,.08,6.08,.83,10.67,4.42,21.29,6.12,31.54,3.31,20.09,12.69,64.82,13.1,67.5,.87,5.13,1.61,10.25,2.27,15.42,.79,5.83,1.49,11.7,1.86,17.57,.29,4.3,1.45,11.95-4.8,12.4Z"/>
    </g>
  </g>
</svg>