<?xml version="1.0" encoding="UTF-8"?>
<svg id="Layer_2" data-name="Layer 2" xmlns="http://www.w3.org/2000/svg" viewBox="0 0 832.26 327.02">
  <defs>
    <style>
      .cls-1 {
        fill: #fff;
      }

      .cls-2 {
        fill: #7d8081;
      }

      .cls-3 {
        fill: #b7b6b6;
      }

      .cls-4 {
        fill: #231f20;
      }

      .cls-5 {
        fill: #424445;
      }

      .cls-6 {
        fill: #414349;
      }

      .cls-7 {
        fill: #474b52;
      }

      .cls-8 {
        fill: #5e6366;
      }

      .cls-9 {
        fill: #787878;
      }
    </style>
  </defs>
  <g id="WHITE_SHARK" data-name="WHITE SHARK">
    <g>
      <path class="cls-3" d="M424.67,274.73c-19.44,.81-41.32-7.97-41.32-7.97l-8.99,.12c-.83,.31-1.67,.57-2.54,.76-6.78,1.45-13.38,.76-20.05,2.14-14.11,2.93-27.25,.8-40.54-2.03l-33.63,.46s4.11,4.52-27.14,13.18c-31.25,8.66-56.72,0-56.72,0-17.83-3.05-83.19-15.16-54.29-24.41,17.39-5.57,31.15-4.52,39.36-2.8-4.69-1.4-10.41-2.66-16.51-2.95-15.26-.73-29.33,6.18-39.82,9.37-5.48,1.67-10.33,1.96-13.72,1.86-.78,3.87,5.38,7.67,5.92,8,49.24,27.57,138.34,27.58,138.34,27.58,97.48,0,182.28-9.66,249.84-21.51-.12,.89,.06,1.86,.63,2.92,0,0,9.65,12.52,16.94,14.96,7.29,2.43,10.75-20.02,25.93-23.38,4.13-.91,2.24-1.81-2.52-2.34,28.77-5.97,53.34-12.08,73.22-17.5,0,.34,.03,.69,.1,1.06,0,0,15.07,7.3,27.23,7.3s2.93-16.34,2.93-16.34c0,0-.75-.07-2.01-.15,9.56-2.9,17.01-5.31,22.17-7.01,50.87-16.7,68.99-34.35,68.92-47.61-32.71,42.51-292.3,85.48-311.74,86.29Z"/>
      <path class="cls-9" d="M122.49,260.61c10.48-3.19,24.56-10.1,39.82-9.37,6.09,.29,11.82,1.55,16.51,2.95,5.44,1.14,8.45,2.57,8.45,2.57,0,0-19.45-13.63-45.38-6.34-5.67,1.6-11.04,2.79-15.98,3.69h0c-.47,.09-.94,.17-1.4,.25-3.22,.61-11.16,2.45-14.61,6.09-.63,.66-.97,1.34-1.11,2.02,3.39,.1,8.23-.19,13.72-1.86Z"/>
      <path class="cls-2" d="M795.94,61.72c-41.55,30.64-85.55,96.29-85.55,96.29-4.99,12.06-7.87,21.89-7.37,31.37,8.75,1.86,18.8-5.09,25.83-24.41,19.03-52.3,92.31-114.62,103.31-123.78-1-4.33-10.46,1.53-36.22,20.53Z"/>
      <path class="cls-8" d="M729.24,195.1s-2.81,12.21,22.3,34.9c25.1,22.69,66.2,61.65,63.76,51.38-2.43-10.27-42.38-75.84-38.96-100.13,3.42-24.29,54.22-132.2,54.23-132.22,1.3-3.71,1.94-6.35,1.6-7.82-11,9.15-84.28,71.48-103.31,123.78-7.03,19.32-17.08,26.27-25.83,24.41,.21,3.95,1.01,7.83,2.49,11.8,5.99-5.12,13.73-7.33,23.72-6.08Z"/>
      <path class="cls-5" d="M801.49,291.69c31.7,24.04,27.87,.99,16.91-19.45-10.96-20.44-29.48-64.77-32.43-87.46-2.96-22.69,37.71-109.99,37.71-109.99,12.55-2.81,2.6-14.82,2.6-14.82,1.76-4.31,3.24-7.98,4.3-10.96-.01,.03-50.81,107.93-54.23,132.22-3.42,24.29,36.52,89.86,38.96,100.13,2.44,10.27-38.66-28.69-63.76-51.38-25.1-22.69-22.3-34.9-22.3-34.9-9.99-1.26-17.74,.95-23.72,6.08,7.89,21.15,35.18,44.42,95.97,90.52Z"/>
      <path class="cls-1" d="M424.67,274.73c19.44-.81,279.03-43.78,311.74-86.29,0-2.14-.48-4.18-1.38-6.07-6.9,6.15-18.54,7.56-27.77,8.62-7.75,.89-12.21,3.7-20.05,3.65-7.29-.04-13.5,.27-19.95,1.92-6.75,1.73-13.04,3.66-20.16,5.46-5.74,1.46-14.26-.45-19.69,2.09-5.55,2.6-7.2,8.68-13.53,10.17-6.35,1.5-14.09,.53-20.05,1.83-7.56,1.65-15.33,1.11-22.89,2.63-6.81,1.37-12.69,3.28-20.46,3.24-15.37-.08-31.46,3.56-45.98,5.06-7.31,.76-12.75,3.14-19.65,4.05-7.1,.93-13.46,.22-20,1.88-12.28,3.11-19.56,11.54-31.04,16.45-12.76,5.46-29.07-.1-42.38,6.74-5.67,2.91-10.88,8.39-17.06,10.72l8.99-.12s21.87,8.78,41.32,7.97Z"/>
      <path class="cls-1" d="M141.89,250.42c25.93-7.29,45.38,6.34,45.38,6.34,0,0-18.91-9.03-47.81,.23-28.9,9.26,36.46,21.36,54.29,24.41,0,0,25.47,8.66,56.72,0,31.25-8.66,27.14-13.18,27.14-13.18l33.63-.46c-.94-.2-1.87-.4-2.81-.61-6.1-1.33-14.59-.28-20-3.7-4.07-2.57-7.85-8.01-10.08-11.8-2.71-4.62-5.15-14.82-10.34-17.04-5.74-2.46-15.03,1.41-20.05,2.05-13.02,1.66-27.17-11.26-38.88-7.88-3.78,1.09-5.63,3.71-10.44,4.13-3.43,.3-7.64,.44-10.93-.41-6.98-1.8-12.92-6.69-20.15-8.7-12.77-3.55-28.81-2.23-41.43,2.27-7.4,2.64-12.69,3.38-20.46,.96-8.72-2.71-11.87-2.92-19.96-.91-14.05,3.48-30.99,1.32-45.67,1.32-7.62,0-15.87,.78-23.29-.41-.87-.14-2.03-.52-3.37-1,.47,.49,.95,.98,1.44,1.5,20.66,21.88,81.43,29.17,81.43,29.17,0,0,19.72,1,45.64-6.29Z"/>
      <path class="cls-8" d="M735.03,182.36c-1.05-2.2-2.66-4.22-4.74-6.02,0,0-135.47-35.91-151.87-40.75-16.41-4.83-133.09-26.16-156.79-27.98-23.7-1.82,3.04-6.69,3.04-6.69,0,0-27.95-63.2-23.09-82.64,4.86-19.44-34.03,36.45-39.5,57.63-5.47,21.17,1.82,20.15,27.35,26.23,25.52,6.08-34.03-3.65-154.36,23.09C133.04,147.91,29.29,195.54,.08,209.5c-.79,3.53,4.32,7.22,13.29,16.54,1.34,.49,2.5,.86,3.37,1,7.42,1.19,15.68,.41,23.29,.41,14.68,0,31.62,2.16,45.67-1.32,8.09-2,11.23-1.8,19.96,.91,7.73,2.4,13.01,1.68,20.35-.93,4.34-.22,9.75-.73,13.64,.76,1.07,.41,1.83,1.16,3.04,1.11,1.23-.06,2.19-1.57,3.17-1.74,2.26-.4,4.84,1.47,7.16,1.73,5.04,.57,10.02,1.64,15.19,1.79,2.43,.07,4.87,0,7.29,0,2.72,0,4.19,.85,6.68,1.25,.47,.08,.95,.09,1.43,.09,1.33,.56,2.69,1.05,4.08,1.41,3.3,.85,7.51,.71,10.93,.41,1.2-.11,2.21-.35,3.12-.67,.16-.02,.32-.05,.48-.06,1.2-.14,2.46,.12,3.66,.01,1.24-.11,2.44-.68,3.65-.65,2,.04,3.74,1.8,5.3,2.64,1.97,1.07,3.65,1.64,5.47,3.04,1.37,1.05,2.7,1.97,3.97,3.33,1.28,1.38,2.02,2.88,3.49,4.16,1.23-1.4,.36-3.51,.58-5.26,.18-1.52,.64-3.86,1.35-5.33,.95-.14,2.05-.23,3.11-.2,1.23,.46,2.47,.89,3.7,1.28,.37,.39,.71,.84,1.14,1.09,1.15,.7,1.66,.35,2.9,.75,3.79,1.23,4.49,5.39,6.7,8.31-.04-1.74-.23-4.48,1-5.91,1.21-1.41,3.18-1.12,4.91-1.31,.73-.08,1.54-.55,2.56-.47,.91,.07,1.69,.7,2.26,.77,1.87,.23,2.89-1.4,5.03-1.41,2.94-.01,5.74,4.99,6.68,7.32,.68,1.69,.75,3.55,1.35,5.33,.61,1.81,1.81,3.41,1.81,5.54,1.19-.45,1.3-1.7,1.2-2.9,3.1-.35,1.3,5,3.45,6.15-.15,.26-.28,.75-.46,.98,1.86-.5,3.49-1.42,5.22-1.98,1.83,2.36,3.94,4.59,6.15,5.98,5.41,3.41,13.9,2.37,20,3.7,14.25,3.11,28.24,5.77,43.35,2.63,6.67-1.38,13.27-.69,20.05-2.14,5.07-1.08,9.42-4.56,13.74-7.7,2.62-.61,5.27-1.2,8.14-1.54,7.63-.91,16,.04,23.7,.04,15.17,0,30.41,.42,45.58,0,7.5-.21,14.15-1.82,21.88-1.82,8.78,0,15.5,2.01,23.7,3.24,6.39,.96,15.41,1.52,21.87,.4,8.47-1.47,7.64-5.08,12.27-11.43,6.66-9.15,19.62-15.88,29.57-19.65,5.62-2.13,11.95-1.73,17.88-4,6.28-2.41,12.77-4.36,19.09-6.48,12.99-4.37,27.26-11.01,40.11-12.71,12.46-1.65,26.17-3.56,37.83-7.75,5.67-2.03,9.47-3.09,16.06-4,2.78-.38,7.11-1.65,10-3.99,7.88-1.1,16.34-3,21.82-7.88Z"/>
      <path class="cls-1" d="M351.78,269.78c6.67-1.38,13.27-.69,20.05-2.14,.87-.19,1.71-.45,2.54-.76l-63.13,.87c13.29,2.82,26.43,4.96,40.54,2.03Z"/>
      <path class="cls-1" d="M727.13,173.99c2.04,1.52,3.16,2.35,3.17,2.35-.96-.83-2.02-1.62-3.17-2.35Z"/>
      <path class="cls-2" d="M389.43,102.14c-25.52-6.08-32.82-5.06-27.35-26.23,5.47-21.17,44.36-77.06,39.5-57.63-4.86,19.44,23.09,82.64,23.09,82.64,0,0-26.74,4.86-3.04,6.69,23.7,1.82,140.38,23.15,156.79,27.98,16.41,4.83,151.87,40.75,151.87,40.75h0s-1.13-.83-3.17-2.35c-2.16-1.38-4.64-2.58-7.38-3.57-11.42-4.15-51.24-18.06-104.48-32.64,2.38-4.96,4.63-13.17-7.34-12.28-9.91,.74-16.02,3.24-19.42,5.21-47.44-12.07-102.47-23.57-156.56-29.33,.57-1.5,.48-2.92-.4-4.18-11.09-15.94-23.38-66.76-23.38-77.79s16.54-31.7-16.54-9.65c-33.08,22.05-62.12,86.47-62.12,86.47,0,.78,.03,1.54,.07,2.29C175.19,106.95,64.48,168.35,29.39,189.65,9.71,201.6,.99,205.44,.08,209.5c29.21-13.97,132.96-61.59,234.99-84.27,120.33-26.74,179.88-17.02,154.36-23.09Z"/>
      <path class="cls-6" d="M37.73,212.28s8.1,3.65,8.1,9.72-6.39-2.76-9.27-5.84c-2.88-3.08-5.31-3.08,1.17-3.89Z"/>
      <path class="cls-4" d="M88.62,209.03c0,7.03,5.7,12.73,12.72,12.73s12.72-5.7,12.72-12.73-5.7-12.72-12.72-12.72-12.72,5.7-12.72,12.72Z"/>
      <path class="cls-1" d="M108.06,202.1c0-1.86-1.5-3.36-3.36-3.36s-3.36,1.5-3.36,3.36,1.5,3.36,3.36,3.36,3.36-1.5,3.36-3.36Z"/>
      <path class="cls-1" d="M110.91,261.96c-.21-.97-1.34-2.19-.98-3.21,.73-.07,3.88,1.79,3.61,2.81l-2.63,.41Z"/>
      <path class="cls-1" d="M119.2,260.35c-.65-.35-1.4-1.65-1.19-2.42,.6,.07,2.02,1.12,2,1.81l-.81,.61Z"/>
      <path class="cls-1" d="M122.64,259.74c.04-.57-.44-1.3-.66-1.82-.29-.72-.32-1.17-.37-1.96,.78,.67,1.85,.83,2.65,1.5,.27,.23,1.09,.92,1.22,1.21,.22,.47,.02,.58-.41,.87l-2.43,.2Z"/>
      <path class="cls-1" d="M127.3,258.12c-.19-.7-.27-1.44-.17-2.2,.87-.3,2.3,.79,2.4,1.59l-2.23,.61Z"/>
      <path class="cls-1" d="M133.18,255.49c0-.53-.04-1.07,.03-1.59,.51-.2,1.29,.42,1.77,.63,.03,.12-.03,.17-.18,.15l-1.62,.81Z"/>
      <path class="cls-1" d="M140.27,253.87c0,.17,0,.18,0,.03,0-.6-.04-1.23,.03-1.82,.75-.27,2.39,.9,2.2,1.79h-2.23Z"/>
      <path class="cls-1" d="M146.75,252.04c0-.56-.29-.99-.17-1.59,.64-.22,2.2,.92,1.59,1.59h-1.42Z"/>
      <path class="cls-1" d="M115.05,260.6c-.17,.09-.17-1.45-.13-1.8,.73-.12,1.8,1.07,2.1,1.65l-1.98,.15Z"/>
      <path class="cls-7" d="M226.56,265.87c.25,.04,.92-3.96,1.8-10.48,.27-1.63,.31-3.43,.46-5.35,.12-1.93,.25-3.99,.39-6.15,.17-2.17,.16-4.45,.19-6.81,.02-2.36,.05-4.81,.07-7.31-.19-10.01-.69-19.07-1.37-25.59-.62-6.53-1.31-10.54-1.55-10.51-.26,.03-.03,4.07,.25,10.61,.35,6.53,.64,15.55,.83,25.52,0,2.49-.02,4.92-.03,7.27-.01,2.35,.04,4.62-.09,6.77-.08,2.16-.15,4.2-.22,6.12-.09,1.92-.05,3.71-.24,5.33-.55,6.5-.76,10.55-.51,10.59Z"/>
      <path class="cls-7" d="M247.22,266.88c.24,.02,.88-4.06,1.16-10.72,.44-6.68-.57-15.94-1.28-25.98-.85-10.09-1.62-19.22-2.18-25.83-.6-6.61-1.09-10.7-1.35-10.68-.25,.02-.22,4.13,.05,10.77,.14,3.32,.3,7.27,.58,11.65,.33,4.39,.69,9.21,1.06,14.27,.73,10.16,1.92,19.17,1.81,25.79,.05,6.62-.12,10.72,.14,10.74Z"/>
      <path class="cls-7" d="M258.77,260.35c.22,.05,1.11-3.7,2.06-9.85,.36-3.08,.85-6.75,1.19-10.84,.29-4.09,.7-8.59,.88-13.32,.24-4.73,.41-9.23,.48-13.33,.11-4.1,.12-7.79,.11-10.89-.02-6.2-.22-10.04-.47-10.04-.25,0-.52,3.83-.82,10.01-.29,6.18-.69,14.72-1.13,24.15-.18,4.72-.54,9.2-.74,13.28-.24,4.08-.6,7.74-.79,10.82-.61,6.13-1.05,9.94-.77,10Z"/>
      <path class="cls-7" d="M272.75,261.96c.2,.05,1.24-3.36,1.92-9.04,.69-5.67,1-13.56,.82-22.24-.17-8.69-.75-16.53-1.33-22.19-.58-5.66-1.15-9.14-1.41-9.11-.25,.03-.13,3.54,.11,9.2,.25,5.67,.62,13.49,.79,22.13,.18,8.64,.08,16.46-.28,22.09-.34,5.64-.91,9.09-.62,9.15Z"/>
      <path class="cls-8" d="M459.92,319.7c-24.31-10.94-65.63-33.69-72.93-51.48-1.48-3.61-2.78-6.13-4-7.86-1.7,.79-3.29,2.03-2.89,3.84,.81,3.65,27.14,36.06,59.15,48.62,32.01,12.56,4.05,5.67-6.89,4.86-10.94-.81-61.18-8.1-87.91-16.61-26.74-8.51-50.64-29.17-55.91-35.19-3.22-3.68-8.4-4.32-11.94-4.27-.13,1.61,.24,3.78,1,6.61,0,0,35.36,42.98,90.6,51.48,55.25,8.51,116.02,10.94,91.71,0Z"/>
      <path class="cls-2" d="M288.55,265.87c5.26,6.02,29.17,26.69,55.91,35.19,26.74,8.51,76.97,15.8,87.91,16.61,10.94,.81,38.89,7.7,6.89-4.86-32-12.56-58.34-44.97-59.15-48.62-.4-1.81,1.19-3.05,2.89-3.84-3.03-4.31-5.48-3.68-8.57-2.51,0,0-24.7-.54-33.61-3.18-8.91-2.64-36.06-7.49-43.76-4.25-7.7,3.24-15.83,7.43-15.83,7.43,0,.02,0,.04,0,.06-3.05,.08-4.43,1.23-4.63,3.7,3.55-.06,8.72,.58,11.94,4.27Z"/>
      <path class="cls-8" d="M500.99,266.16s17.28,10.41,32.26,14.8c14.99,4.39,6.41-12.11,13.25-18.58,6.84-6.47,3.59-9.12-5.06-10.46-8.65-1.34-50.4,3.81-40.45,14.24Z"/>
      <path class="cls-2" d="M508.84,263.55s16.1,7.3,20.66,8.02c4.56,.73,10.33,.8,11.55-4.01,1.22-4.81,9.42-10.77,0-11.97-9.42-1.19-40.79,4.23-32.21,7.95Z"/>
    </g>
  </g>
</svg>