<?xml version="1.0" encoding="UTF-8"?>
<svg id="Layer_2" data-name="Layer 2" xmlns="http://www.w3.org/2000/svg" viewBox="0 0 209.94 221.41">
  <defs>
    <style>
      .cls-1 {
        fill: #fff;
      }

      .cls-2 {
        fill: #ff9a66;
      }

      .cls-3 {
        fill: #e2ede7;
      }

      .cls-4 {
        fill: #c4837c;
      }

      .cls-5 {
        fill: #100024;
      }

      .cls-6 {
        fill: #1d4647;
      }

      .cls-7 {
        fill: #285f61;
      }
    </style>
  </defs>
  <g id="Layer_1-2" data-name="Layer 1">
    <g>
      <path class="cls-3" d="M128.19,153.39c5.08-3.2,6.98-9.49,11.47-13.41,4.89-4.27,12.05-5.09,18.69-5.1,2.87,0,6.84,1.4,6.03,4.03-.56,1.82-3.3,2.58-3.45,4.47-.17,2.12,2.9,2.88,5.13,2.7,7.84-.6,15.44-3.14,23.29-3.36,7.86-.22,16.68,2.69,19.79,9.57,.52,1.15,.86,2.4,.79,3.65-.28,4.49-5.42,7.03-9.9,8.46s-9.71,3.32-10.86,7.69c-.58,2.2,.09,4.54-.26,6.78-.7,4.55-5.46,7.67-10.21,8.47-4.75,.8-9.6-.13-14.41-.57-4.8-.43-10-.26-13.94,2.39-2.79,1.88-4.6,4.77-6.67,7.37-3.67,4.58-8.6,8.5-14.48,9.81-5.88,1.31-12.75-.49-16.12-5.28-1.87-2.66-2.64-6.08-5.22-8.12-5.62-4.47-13.77,.3-19.71-3.1-5.76-3.3-6.65-12.05-3.39-17.13,3.72-5.79,11.86-11.7,18.3-14.28,7.92-3.17,17.89-.45,25.13-5.02Z"/>
      <path class="cls-6" d="M150.85,179.11c-3.18,1.81-6.65,3.63-10.32,5.44-2.69,1.33-5.49,2.65-8.34,3.95-3.34,1.52-6.77,3.01-10.21,4.46-7.29,3.05-14.69,5.89-21.61,8.34-1.87,.67-3.71,1.3-5.5,1.91-1.5,.51-3.02,1.01-4.55,1.5-2.75,.89-5.55,1.76-8.39,2.61-3.3,.99-6.65,1.95-10,2.88-8.14,2.23-16.34,4.24-24.15,5.92-3.42,.74-6.77,1.42-10,2.02-2.85,.54-5.62,1.01-8.26,1.42-3.56,.55-6.9,.99-9.97,1.31-11.41,1.17-19.01,.56-19.5-2.58-.68-4.42,5.64-10.54,22.26-19.62,3.02-1.65,6.37-3.39,10.08-5.24,2.6-1.29,5.37-2.64,8.33-4.04,3.1-1.47,6.39-2.99,9.89-4.58,5.78-2.62,12.12-5.4,19.06-8.37,1.99-.85,4.01-1.68,6.04-2.46,3.1-1.22,6.24-2.36,9.39-3.43,2.7-.92,5.42-1.8,8.13-2.63,3.26-1,6.52-1.93,9.75-2.8,7.77-2.1,15.34-3.83,22.35-5.25,3.3-.66,6.47-1.26,9.49-1.8,2.77-.49,5.4-.92,7.86-1.31,3.71-.58,7.04-1.04,9.88-1.41,2.43-.31,4.51-.55,6.17-.72,8.18-.84,10.23,4.23,10.71,6.35,1.11,4.87-6.77,11.43-18.6,18.15Z"/>
      <path class="cls-7" d="M32.39,193.42c-.74,8.73-1.7,17.45-2.87,26.14-3.56,.55-6.9,.99-9.97,1.31,.65-6.76,1.69-16.04,2.76-22.2,3.02-1.65,6.37-3.39,10.08-5.24Z"/>
      <path class="cls-7" d="M50.61,184.8c-.74,10.46-1.68,20.91-2.83,31.32-3.42,.74-6.77,1.42-10,2.02,.68-8.66,1.79-21.04,2.94-28.75,3.1-1.47,6.39-2.99,9.89-4.58Z"/>
      <path class="cls-7" d="M85.11,170.53c-.79,12.3-1.86,24.56-3.18,36.79-3.3,.99-6.65,1.95-10,2.88,.77-10.64,2.33-28.9,3.79-36.23,3.1-1.22,6.24-2.36,9.39-3.43Z"/>
      <path class="cls-7" d="M102.99,165.09c-.7,12.1-1.58,24.17-2.62,36.21-1.87,.67-3.71,1.3-5.5,1.91-1.5,.51-3.02,1.01-4.55,1.5,.65-10.82,1.77-26.7,2.92-36.81,3.26-1,6.52-1.93,9.75-2.8Z"/>
      <path class="cls-7" d="M134.82,158.04c-.7,10.18-1.57,20.33-2.64,30.45-3.34,1.52-6.77,3.01-10.21,4.46,.73-9.93,2.06-25.27,3.37-33.11,3.3-.66,6.47-1.26,9.49-1.8Z"/>
      <path class="cls-5" d="M89.62,42.95c.24-.67,.48-1.2,.6-1.34,1.46-1.65,3.62-2.74,5.81-2.98,1.55-.17,3.18,.05,4.64-.51,1.24-.48,2.19-1.46,3.29-2.21,2.08-1.42,4.74-1.95,7.21-1.46,2.1,.42,4.21,1.56,6.28,1,2.15-.59,3.5-2.86,5.62-3.56,2.42-.8,4.97,.66,7.52,.79,1.74,.09,3.45-.45,5.15-.86,1.7-.42,3.51-.71,5.17-.15,1.65,.56,3.05,2.23,2.74,3.95-.43,2.32-3.39,3.24-4.44,5.35-1.19,2.39-.65,5.32-3.61,6.4-2.38,.86-5.15,0-7.36,1.47-1.82,1.21-2.49,3.66-4.29,4.91-2.19,1.52-5.17,.74-7.8,1.18-1.79,.3-3.44,1.19-5.2,1.66-3.31,.87-6.38-1.22-9.69-1.05-.85,.04-1.71,.3-2.54,.1-.92-.22-1.64-.99-2.03-1.86-.71-1.54-.13-2.94-1.95-3.6-1.63-.59-2.96-1.8-2.8-3.47-.16-.02-.31-.15-.27-.35,.15-.77,.43-1.51,.79-2.2-.03,.01-.07,.03-.08,.04-1,.57-1.82,1.57-2.51,2.51-.12,.17-.23,.31-.39,.39-.06,.03-.12,.06-.19,.07-.93,.19-.26-2.5,.36-4.22Z"/>
      <path class="cls-2" d="M89.95,53.42c-.47-1.99-.74-4.2-.51-6.28,.15-.09,.25-.22,.36-.39,.62-.92,1.37-1.91,2.31-2.5,.17-.11,1.95-1,1.89-1.19,.4,.98,1.13,1.82,2.03,2.35,1.07,.63,2.43,1.04,2.64,2.47,.05,.35,.03,1.21,.46,1.37,.32,.12,1.02-.46,1.43-.52,2.54-.4,.86,3.24,.03,4.04-.07,.07-.14,.13-.18,.22-.03,.07-.04,.15-.05,.22-.2,1.43-.91,2.64-2.07,3.48-1.46,1.05-3.42,1.73-5.22,1.33-2.13-.48-2.66-2.73-3.11-4.62Z"/>
      <path class="cls-2" d="M126.46,140.57c-.44,3.29-1.63,6.42-2.89,9.48-2.37,5.75-9.73,22.88-10.79,25.8-.84,2.31,.92,4.65,2.98,5.91,.45,.27,.93,.53,1.25,.95s.42,1.05,.09,1.46c-2.27-.27-4.45-1-6.54-1.9-1.57-.67-4.26-1.31-4.55-3.19-.09-.68,2.03-4.11,2.25-4.76,1.98-5.82,.95-9.19,2.21-15.2,.93-4.43,2.11-8.86,4.1-12.95,1.86-3.82,4.59-6.62,1.77-10.89-1.34-2.03-6.89-5.11-10.73-9.74-1.28-1.56-3.43-4.57-5.18-7.26-1.71-2.6-3.05-4.9-2.92-5.27-.44,1.19-1.1,2.9-1.89,4.89-2.43,6.03-6.17,14.66-9.37,19.46-4.7,7.08-10.13,14.1-12.04,22.57-1.05,4.64-.92,9.54-2.43,14.07-1.23,3.7-3.95,7.08-6.19,10.22-1.25,1.75-2.61,3.44-3.82,5.22-1.27,1.89-3.04,3.28-4.41,5.12-.43,.57-.84,1.2-.94,1.91-.2,1.51,.57,2.8-.79,4.07-.37,.34-.8,.58-1.24,.8-2.84,1.48-6.14,3.68-9.27,4.34-2.67,.55-.79-1.77,.37-2.63,3.51-2.64,5.95-6.62,7.94-10.49,2.4-4.64,3.76-9.73,5.23-14.71,3.37-11.42,7.4-22.61,11.44-33.8,3.7-10.3,7.42-20.62,11.79-30.64,2.36-5.44,4.91-10.8,7.76-16.02,.06,.01,.13,.01,.19,.02,4.9,.66,9.85,.18,14.56-1.27,.05,.12,.11,.22,.16,.34,2.23,4.81,5.04,9.32,7.96,13.75,1.73,2.63,3.5,5.23,5.22,7.86,4.3,6.56,9.79,14.21,8.69,22.45Z"/>
      <path class="cls-2" d="M118.87,41.11c.07,5.93-1.66,11.32-3.84,16.78-1.27,3.2-3,6.24-4.02,9.53-.93,2.98-1.14,4.19-1.68,6.77-.26,1.15-.58,2.58-1.06,4.57,0-.31-4.58-4.45-4.75-4.91-.54-1.48-.97-2.99-1.28-4.54-.38-1.8-1.53-4.48-1.46-6.2,.04-.86,.37-1.46,1.25-1.64,.01,0,.04-.01,.06-.01,.71-.12,1.37-.37,1.97-.74,3.81-2.31,5.63-9.07,7.34-13.87,1.13-3.15,1.87-6.44,2-9.79,.11-2.7-.31-5.3-.42-7.98-.12-2.83-.35-5.64-.7-8.45-.22-1.93-.51-3.85-.85-5.76-.25-1.47-.81-3.42-.26-4.88,.27-.71,1-1.31,1.76-1.15,1.54,.32,1.37,2.46,1.23,3.57-.28,2.17,.51,4.32,1.14,6.35,2.29,7.22,3.49,14.77,3.58,22.34Z"/>
      <path class="cls-2" d="M96.75,70.32c-2.77,2.86-6.04,5.2-9.34,7.41-.75,.51-1.52,1.01-2.29,1.51-.37,.26-.73,.49-1.11,.73-1.76,1.14-3.52,2.27-5.3,3.37-5,3.07-10.01,5.71-15.86,6.67-7.47,1.21-15.12,1.33-22.62,.33-2.11-.28-4.37-.7-6.46-.04-1.06,.33-3.15,.87-3.73-.59-.27-.71,.19-1.54,.85-1.93,1.33-.79,3.35-.58,4.84-.58,1.93,0,3.88-.06,5.82-.16,2.82-.14,5.64-.4,8.44-.77,2.66-.35,5.3-.39,7.94-.97,3.28-.71,6.39-2,9.3-3.65,5.12-2.91,9.88-6.86,14.05-11.02,1.58-1.58,4.75-5,8.21-6.27,.84-.32,1.7-.49,2.54-.49,1.57,0-1.13,5.09,.41,5.36,.48,.09,3.9,1.17,4.3,1.08Z"/>
      <path class="cls-2" d="M108.99,73.88c-.16,1.64-.42,3.26-.72,4.89-.21,1.13-.44,2.25-.66,3.37-.97,4.79-1.96,9.6-3.03,14.37-.04,.14-.06,.27-.09,.41-4.23,1.2-8.64,1.79-13.03,1.74-.41,0-.86-.02-1.17-.29-.21-.21-.32-.51-.4-.8-.01-.05-.02-.08-.04-.13-1.86-6-3.71-12.03-4.74-18.2-.25-1.43-.44-2.85-.58-4.29-.04-.33-.07-.67-.09-1-.15-1.84-.2-3.76,.58-5.42,.81-1.78,2.45-3.03,4.28-3.77,.38-.16,.75-.29,1.14-.41,.52-.15,1.07-.29,1.59-.47,.29-.09,.58-.21,.84-.35,.51-.25,.94-.58,1.24-1.06,.32-.51,.44-1.11,.54-1.7,.27-1.46,.54-2.92,.8-4.37,.18-.91,.35-1.83,.81-2.63,.47-.79,1.8-3.17,2.72-3.16,3.15,.02,.35,8.31,2.03,10.11,.29,.32,.65,.55,1.02,.73,.01,.01,.04,.02,.05,.02,.59,.28,1.26,.42,1.94,.57,.99,.2,2,.39,2.83,.93,1.64,1.07,2.13,3.24,2.27,5.2,.13,1.91,.06,3.81-.14,5.71Z"/>
      <path class="cls-4" d="M112.55,110.26c-3.68,2.06-7.21,4.39-10.56,6.96-.49,.38-1.01,.78-1.56,1.08-1.71-2.6-3.05-4.9-2.92-5.27-.44,1.19-1.1,2.9-1.89,4.89-.15-.08-.31-.15-.46-.24-4.14-2.12-8.72-3.22-13.27-4.25,2.36-5.44,4.91-10.8,7.76-16.02,.06,.01,.13,.01,.19,.02-.02-.08-.05-.15-.07-.24-.73-2.33-1.45-4.68-2.12-7.02-1.02-3.62-1.93-7.26-2.54-10.94-.66-1.79-1.06-2.67-.58-4.29,.05-.18,3.83-7.7,4.36-9.15,.13-.34,.25-.7,.4-1.04,.06-.13,.12-.27,.19-.39,.84-.32,1.7-.49,2.54-.49,.29-.09,.58-.21,.84-.35,.01,.01,.04,.02,.05,.04,1.02,.68,2.31,.84,3.53,.81,1.35-.01,2.75-.24,3.9-.95,.14-.09,.28-.19,.42-.29,.54-.44,.99-1,1.25-1.64,.01-.01,.01-.02,.01-.04,.01,.01,.04,.02,.05,.02,.71-.12,1.37-.37,1.97-.74,.01,0,.02,.01,.04,.01-.05,.44-.06,.86-.06,1.3-.02,4.39,1.83,8.77,4.96,11.84,.12,.12,.22,.22,.34,.32-.26,1.15-.58,2.58-1.06,4.57-.21,1.13-.44,2.25-.66,3.37-.45,2.19-.88,4.39-1.34,6.59-.54,2.6-1.11,5.2-1.68,7.79,.01,.04,.02,.06,.05,.09,2.21,4.77,5.02,9.25,7.92,13.65Z"/>
      <path class="cls-2" d="M104.58,96.51s.02,.06,.05,.09c-4.87,1-9.88,1.18-14.84,.6-.73-2.33-1.45-4.68-2.12-7.02,3.35,.09,6.7,.12,10.05,.08,2.86-.38,5.71-.88,8.55-1.54-.54,2.6-1.11,5.2-1.68,7.79Z"/>
      <path class="cls-1" d="M87.44,108.76c-.13-.35-.74-.34-.71,.1,.06,.63,.15,1.51,.63,1.97,.23,.22,.54,.04,.57-.24,.06-.57-.29-1.29-.49-1.82Z"/>
      <path class="cls-1" d="M90.98,103.53c-.03-.14-.22-.09-.23,.03-.1,.87-.3,1.87,.02,2.72,.09,.23,.46,.28,.52,0,.21-.89-.1-1.89-.31-2.75Z"/>
      <path class="cls-1" d="M92.55,110.79c-.03-.18-.35-.19-.37,0-.14,.94-.25,2.1,.17,2.99,.13,.29,.5,.1,.53-.14,.11-.9-.19-1.95-.33-2.84Z"/>
      <path class="cls-1" d="M96.36,102.29s-.08-.04-.12-.02c-.34,.22-.41,.69-.49,1.07-.11,.5-.16,.98-.08,1.48,.04,.23,.4,.27,.5,.06,.23-.45,.31-.94,.35-1.44,.03-.39,.1-.84-.16-1.16Z"/>
      <path class="cls-1" d="M100.68,110.24c-.4-.5-.78-1.16-1.29-1.55-.22-.17-.56-.02-.48,.28,.16,.63,.64,1.2,1.01,1.72,.34,.47,.66,1.05,1.27,1.16,.14,.02,.28-.06,.28-.21,0-.59-.43-.96-.78-1.4Z"/>
      <path class="cls-1" d="M103.25,103.41c-.25-.44-.69-.8-1.04-1.16-.32-.33-.59-.73-1.03-.91-.15-.06-.28,.09-.29,.22-.04,.9,1.15,2.11,1.96,2.36,.3,.09,.54-.25,.39-.51Z"/>
      <path class="cls-1" d="M106.49,106.52c-.06-.3-.47-.25-.56,0-.18,.49-.23,1.02-.29,1.54-.06,.51-.16,1.06,0,1.56,.09,.29,.54,.4,.69,.09,.23-.48,.23-1.02,.24-1.54,.02-.55,.03-1.11-.08-1.65Z"/>
      <path class="cls-1" d="M90.09,85.39c-.37-.76-1.23-1.41-1.86-1.96-.15-.13-.42,.04-.3,.23,.47,.71,1.02,1.67,1.74,2.15,.28,.19,.55-.17,.42-.42Z"/>
      <path class="cls-1" d="M87.93,74.26c-.16-.1-.35,.1-.25,.25,.25,.41,.54,.8,.81,1.2,.26,.37,.47,.78,.83,1.07,.24,.19,.65,.02,.55-.32-.25-.9-1.18-1.7-1.94-2.19Z"/>
      <path class="cls-1" d="M95.48,80.81c-.03-.63-.11-1.28-.1-1.91,0-.33-.53-.42-.59-.08-.1,.63-.23,1.23-.28,1.87-.04,.57-.15,1.23,.2,1.72,.15,.22,.48,.25,.63,0,.28-.49,.17-1.04,.14-1.59Z"/>
      <path class="cls-1" d="M92.37,70.9c-.09-.59-.17-1.21-.21-1.8-.01-.2-.33-.27-.37-.05-.2,1.07-.43,2.54,.19,3.51,.17,.27,.52,.13,.56-.15,.06-.5-.09-1.01-.17-1.51Z"/>
      <path class="cls-1" d="M98.54,72.77c-.39-.53-.82-.95-1.29-1.41-.18-.18-.47,.05-.35,.27,.31,.56,.6,1.13,.93,1.68,.3,.5,.56,1.12,1.01,1.5,.3,.25,.72,.01,.65-.38-.11-.62-.6-1.16-.96-1.66Z"/>
      <path class="cls-1" d="M102.55,68.55c-.38-.83-.93-1.64-1.48-2.38-.18-.24-.54-.1-.49,.21,.17,1.02,.73,1.98,1.56,2.58,.27,.19,.52-.17,.41-.41Z"/>
      <path class="cls-1" d="M105.9,75.35c-.07-.33-.6-.42-.75-.1-.22,.48-.29,1.03-.36,1.55-.07,.55-.14,1.13,.02,1.67,.09,.31,.53,.38,.7,.09,.26-.47,.33-1.01,.38-1.54,.05-.55,.12-1.13,0-1.68Z"/>
      <path class="cls-1" d="M100.92,83.08c-.28,.54-.52,1.09-.73,1.66-.19,.51-.41,1.01-.18,1.53,.09,.2,.37,.24,.54,.14,.45-.25,.56-.79,.71-1.26,.17-.58,.3-1.17,.4-1.76,.07-.41-.51-.75-.73-.31Z"/>
    </g>
    <g>
      <path class="cls-3" d="M137.51,7.47c2.55-3.26,6.07-5.78,10.03-6.99,1.64-.5,3.47-.76,5.04-.06,1.57,.7,2.67,2.65,1.93,4.2-.62,1.31-2.19,1.83-3.59,2.22-3.54,.98-7.09,2.04-10.31,3.78-1.54,.83-3,1.83-4.29,3.02-.64,.59-1.25,1.22-1.79,1.9-.39,.49-.8,1.42-1.44,1.57,.13-3.26,2.47-7.14,4.43-9.64Z"/>
      <path class="cls-3" d="M142.16,13.66c1.97-1.16,4.12-2.02,6.35-2.54,1.43-.33,2.95-.53,4.35-.07,1.4,.45,2.62,1.7,2.64,3.17,0,.36-.06,.72-.25,1.03-.29,.48-.82,.77-1.37,.87-.55,.1-1.11,.02-1.66-.08-1.15-.22-2.26-.58-3.39-.86-1.49-.37-3.01-.59-4.54-.66-.77-.04-1.53,.02-2.3,0-.97-.02-.4-.51,.17-.85Z"/>
    </g>
  </g>
</svg>