<svg width="1284" height="840" viewBox="0 0 1284 840" fill="none" xmlns="http://www.w3.org/2000/svg">
<mask id="mask0_22_408" style="mask-type:alpha" maskUnits="userSpaceOnUse" x="4" y="0" width="1280" height="832">
<rect width="1280" height="832" transform="translate(4)" fill="white"/>
</mask>
<g mask="url(#mask0_22_408)">
<path fill-rule="evenodd" clip-rule="evenodd" d="M235.628 -404.335C537.439 -387.854 585.541 -73.6752 752.423 111.19C865.669 236.639 990.313 344.16 1042.59 489.583C1121.05 707.844 1324.49 968.379 1121.65 1138.32C919.426 1307.74 534.181 1218.93 235.628 1165.64C12.7881 1125.86 -153.872 1011.57 -303.045 883.994C-437.057 769.388 -543.802 640.236 -554.9 489.583C-566.65 330.076 -483.043 184.283 -364.467 50.1983C-201.851 -133.686 -62.7361 -420.628 235.628 -404.335Z" fill="#2E90FA"/>
<path fill-rule="evenodd" clip-rule="evenodd" d="M172.628 -386.335C474.439 -369.854 522.541 -55.6752 689.423 129.19C802.669 254.639 927.313 362.16 979.589 507.583C1058.05 725.844 1261.49 986.379 1058.65 1156.32C856.426 1325.74 471.181 1236.93 172.628 1183.64C-50.2119 1143.86 -216.872 1029.57 -366.045 901.994C-500.057 787.388 -606.802 658.236 -617.9 507.583C-629.65 348.076 -546.043 202.283 -427.467 68.1983C-264.851 -115.686 -125.736 -402.628 172.628 -386.335Z" fill="#175CD3"/>
</g>
</svg>
