<svg width="1280" height="749" viewBox="0 0 1280 749" fill="none" xmlns="http://www.w3.org/2000/svg">
<path fill-rule="evenodd" clip-rule="evenodd" d="M676.671 34.7862C856.545 43.3844 1058.36 29.6054 1177.39 89.2547C1300.67 151.037 1297.42 241.978 1248 321.104C1201.39 395.75 1072.14 447.204 926.465 491.058C729.993 550.205 522.72 643.616 299.801 606.554C70.0281 568.352 31.6279 438.807 -20.2831 333.653C-71.1025 230.711 -154.833 107.493 17.0455 33.7884C182.287 -37.0704 446.708 23.7935 676.671 34.7862Z" fill="#1570EF"/>
<path fill-rule="evenodd" clip-rule="evenodd" d="M1001.74 562C1023.85 562.056 1045.5 568.18 1060.97 580.483C1076.3 592.666 1083.17 609.559 1083 626.612C1082.83 643.522 1074.8 659.611 1060.05 672.023C1044.67 684.967 1024.38 694.898 1001.74 694.999C978.989 695.101 958.355 685.442 942.754 672.547C927.643 660.058 919.119 643.772 919.001 626.612C918.883 609.357 926.473 592.402 942.12 580.183C957.787 567.949 979.552 561.945 1001.74 562Z" fill="#0BA5EC"/>
<path fill-rule="evenodd" clip-rule="evenodd" d="M1154.92 653C1167.46 653.04 1179.74 657.461 1188.51 666.341C1197.2 675.135 1201.1 687.328 1201 699.637C1200.9 711.843 1196.35 723.456 1187.99 732.415C1179.26 741.758 1167.76 748.926 1154.92 748.999C1142.02 749.073 1130.32 742.101 1121.47 732.794C1112.9 723.779 1108.07 712.023 1108 699.637C1107.93 687.182 1112.24 674.944 1121.11 666.125C1129.99 657.294 1142.34 652.96 1154.92 653Z" fill="#36BFFA"/>
</svg>
