<svg width="1280" height="832" viewBox="0 0 1280 832" fill="none" xmlns="http://www.w3.org/2000/svg">
<mask id="mask0_22_436" style="mask-type:alpha" maskUnits="userSpaceOnUse" x="0" y="0" width="1280" height="832">
<rect width="1280" height="832" fill="white"/>
</mask>
<g mask="url(#mask0_22_436)">
<path fill-rule="evenodd" clip-rule="evenodd" d="M1467.96 203.091C1422.32 279.605 1395.9 387.025 1308.61 404.866C1218.6 423.262 1138.04 348.466 1072.71 283.875C1011.46 223.31 970.188 147.285 961.425 61.5918C952.228 -28.3387 955.57 -132.671 1024.08 -191.649C1089.51 -247.974 1186.47 -208.257 1272.78 -206.443C1347.46 -204.874 1431.42 -231.887 1486.94 -181.923C1542.34 -132.071 1537.07 -46.364 1533.4 28.0738C1530.21 92.7427 1501.14 147.487 1467.96 203.091Z" fill="#FEC84B"/>
<path fill-rule="evenodd" clip-rule="evenodd" d="M1496.96 171.091C1451.32 247.605 1424.9 355.025 1337.61 372.866C1247.6 391.262 1167.04 316.466 1101.71 251.875C1040.46 191.31 999.188 115.285 990.425 29.5918C981.228 -60.3387 984.57 -164.671 1053.08 -223.649C1118.51 -279.974 1215.47 -240.257 1301.78 -238.443C1376.46 -236.874 1460.42 -263.887 1515.94 -213.923C1571.34 -164.071 1566.07 -78.364 1562.4 -3.92623C1559.21 60.7427 1530.14 115.487 1496.96 171.091Z" fill="#F79009"/>
<path fill-rule="evenodd" clip-rule="evenodd" d="M1545.96 148.091C1500.32 224.605 1473.9 332.025 1386.61 349.866C1296.6 368.262 1216.04 293.466 1150.71 228.875C1089.46 168.31 1048.19 92.285 1039.42 6.59178C1030.23 -83.3387 1033.57 -187.671 1102.08 -246.649C1167.51 -302.974 1264.47 -263.257 1350.78 -261.443C1425.46 -259.874 1509.42 -286.887 1564.94 -236.923C1620.34 -187.071 1615.07 -101.364 1611.4 -26.9262C1608.21 37.7427 1579.14 92.4873 1545.96 148.091Z" fill="#DC6803"/>
</g>
</svg>
